<?xml version="1.0" encoding="UTF-8"?>
<svg width="28px" height="20px" viewBox="0 0 28 20" version="1.1" xmlns="http://www.w3.org/2000/svg" xmlns:xlink="http://www.w3.org/1999/xlink">
    <!-- Generator: Sketch 53.2 (72643) - https://sketchapp.com -->
    <title>customer-2</title>
    <desc>Created with Sketch.</desc>
    <g id="Welcome" stroke="none" stroke-width="1" fill="none" fill-rule="evenodd">
        <g id="Artboard" transform="translate(-2592.000000, -1302.000000)" fill="#02436B">
            <g id="customer-2" transform="translate(2592.000000, 1301.000000)">
                <path d="M23.503906,9.9991 C23.36706,9.9991 23.235763,10.0531 23.140625,10.1515 C22.190371,11.1277 20.95482,11.6591 19.613281,11.6671 C19.364099,11.6671 19.154202,11.8537 19.121094,12.1007 C18.643009,15.7342 19.660305,18.001 20.839844,19.3077 C22.019383,20.6145 23.369141,20.9835 23.369141,20.9835 C23.454221,21.0065 23.54383,21.0065 23.628906,20.9835 C23.628906,20.9835 24.980488,20.6145 26.160156,19.3077 C27.339825,18.001 28.356421,15.7342 27.878906,12.1007 C27.845696,11.853 27.634692,11.6678 27.384766,11.6671 C26.053347,11.6671 24.779493,11.1199 23.861328,10.1554 C23.768258,10.0574 23.639294,10.0007 23.503906,9.9991 L23.503906,9.9991 Z M23.498006,11.1906 C24.43973,12.0398 25.71278,12.5719 26.935506,12.6436 C27.259895,15.7932 26.371253,17.5818 25.417928,18.6378 C24.433834,19.6206 23.67975,19.9068 23.499959,19.962 C23.321697,19.907 22.516182,19.6256 21.58199,18.6378 C20.604517,17.6042 19.743437,15.7971 20.068318,12.6475 C21.334846,12.5595 22.545106,12.0382 23.498006,11.1906 L23.498006,11.1906 Z" id="Shape" fill-rule="nonzero"></path>
                <path d="M1.8261719,0.9991 C0.823389,0.9991 0,1.8211 0,2.8233 L0,15.1769 C0,16.1791 0.823389,16.9991 1.8261719,16.9991 L18.25,16.9991 L18.25,15.9991 L1.8261719,15.9991 C1.3587247,15.9991 1,15.641 1,15.1769 L1,2.8233 C1,2.3592 1.3587247,1.9991 1.8261719,1.9991 L22.173828,1.9991 C22.641275,1.9991 23,2.3592 23,2.8233 L23,8.9991 L24,8.9991 L24,2.8233 C24,1.8211 23.176611,0.9991 22.173828,0.9991 L1.8261719,0.9991 Z" id="Path" fill-rule="nonzero"></path>
                <polygon id="Path" fill-rule="nonzero" points="0.5 3.9991 0.5 4.9991 23.5 4.9991 23.5 3.9991"></polygon>
                <polygon id="Path" fill-rule="nonzero" points="0.5 6.9991 0.5 7.9991 23.5 7.9991 23.5 6.9991"></polygon>
                <path d="M16.5,9.9991 C16.2238691,9.99912759 16.0000276,10.2229691 16,10.4991 L16,13.4991 C16.0000276,13.7752309 16.2238691,13.9990724 16.5,13.9991 L18,13.9991 L18,12.9991 L17,12.9991 L17,10.9991 L19.5,10.9991 L19.5,9.9991 L16.5,9.9991 L16.5,9.9991 Z" id="Path" fill-rule="nonzero"></path>
                <polygon id="Path" points="4.5 12.9991 4.5 13.9991 9.5 13.9991 9.5 12.9991"></polygon>
            </g>
        </g>
    </g>
</svg>