<?xml version="1.0" encoding="UTF-8"?>
<svg width="60px" height="60px" viewBox="0 0 60 60" version="1.1" xmlns="http://www.w3.org/2000/svg" xmlns:xlink="http://www.w3.org/1999/xlink">
    <!-- Generator: Sketch 53.2 (72643) - https://sketchapp.com -->
    <title>customer-1</title>
    <desc>Created with Sketch.</desc>
    <g id="Welcome" stroke="none" stroke-width="1" fill="none" fill-rule="evenodd">
        <g id="Artboard" transform="translate(-2533.000000, -1135.000000)" fill="#02436B" fill-rule="nonzero">
            <g id="customer-1" transform="translate(2533.000000, 1135.000000)">
                <path d="M29,48.949 L29,57 L26.6,55.2 L25.4,56.8 L29.4,59.8 C29.7555556,60.0666667 30.2444444,60.0666667 30.6,59.8 L34.6,56.8 L33.4,55.2 L31,57 L31,48.949 C35.3375718,48.7242954 39.4652434,47.0118485 42.688,44.1 L48.388,49.8 L45.418,50.225 L45.7,52.2 L50.649,51.493 C51.0893097,51.430286 51.435286,51.0843097 51.498,50.644 L52.2,45.7 L50.22,45.417 L49.796,48.387 L44.096,42.687 C47.009091,39.4650671 48.7229604,35.3377249 48.949,31 L57,31 L55.2,33.4 L56.8,34.6 L59.8,30.6 C60.0666667,30.2444444 60.0666667,29.7555556 59.8,29.4 L56.8,25.4 L55.2,26.6 L57,29 L48.949,29 C48.7242954,24.6624282 47.0118485,20.5347566 44.1,17.312 L49.8,11.612 L50.224,14.582 L52.2,14.3 L51.5,9.353 C51.437286,8.91269034 51.0913097,8.56671397 50.651,8.504 L45.7,7.8 L45.417,9.779 L48.387,10.204 L42.687,15.904 C39.4650671,12.990909 35.3377249,11.2770396 31,11.051 L31,3 L33.4,4.8 L34.6,3.2 L30.6,0.2 C30.2444444,-0.0666666667 29.7555556,-0.0666666667 29.4,0.2 L25.4,3.2 L26.6,4.8 L29,3 L29,11.051 C24.6624282,11.2757046 20.5347566,12.9881515 17.312,15.9 L11.612,10.2 L14.582,9.775 L14.3,7.8 L9.351,8.507 C8.91069034,8.56971397 8.56471397,8.91569034 8.502,9.356 L7.8,14.3 L9.78,14.583 L10.204,11.613 L15.904,17.313 C12.990909,20.5349329 11.2770396,24.6622751 11.051,29 L3,29 L4.8,26.6 L3.2,25.4 L0.2,29.4 C-0.0666666667,29.7555556 -0.0666666667,30.2444444 0.2,30.6 L3.2,34.6 L4.8,33.4 L3,31 L11.051,31 C11.2757046,35.3375718 12.9881515,39.4652434 15.9,42.688 L10.2,48.388 L9.776,45.418 L7.8,45.7 L8.507,50.649 C8.56971397,51.0893097 8.91569034,51.435286 9.356,51.498 L14.3,52.2 L14.583,50.221 L11.613,49.796 L17.313,44.096 C20.5349329,47.009091 24.6622751,48.7229604 29,48.949 Z M30,13 C39.3888407,13 47,20.6111593 47,30 C47,39.3888407 39.3888407,47 30,47 C20.6111593,47 13,39.3888407 13,30 C13.010471,20.6154999 20.6154999,13.010471 30,13 Z" id="Shape"></path>
                <path d="M33.451,38.315 L34.219,40.162 C35.5523413,39.6084126 36.7631871,38.7968774 37.782,37.774 L36.368,36.361 C35.5338076,37.198043 34.5425054,37.8620829 33.451,38.315 Z" id="Path"></path>
                <path d="M22.233,37.79 L23.646,36.374 C22.8079016,35.5406212 22.1425213,34.5500268 21.688,33.459 L19.843,34.229 C20.3972255,35.5618953 21.2094595,36.77209 22.233,37.79 L22.233,37.79 Z" id="Path"></path>
                <path d="M40.148,25.75 C39.5901144,24.4184067 38.7744774,23.2102444 37.748,22.195 L36.338,23.614 C37.1781967,24.4449632 37.8456799,25.4339531 38.302,26.524 L40.148,25.75 Z" id="Path"></path>
                <path d="M26.532,21.693 L25.761,19.847 C24.4278863,20.4030825 23.2177299,21.2169899 22.2,22.242 L23.618,23.652 C24.4503879,22.8129171 25.4407951,22.1470943 26.532,21.693 Z" id="Path"></path>
                <path d="M21.675,26.575 L19.825,25.813 C19.277437,27.1408647 18.9970895,28.5636708 19,30 L18.9999776,30.021 L21,30 C20.9975929,28.8250546 21.2269709,27.6611734 21.675,26.575 L21.675,26.575 Z" id="Path"></path>
                <path d="M38.318,33.442 L40.166,34.208 C40.7194388,32.8742569 41.0029056,31.4440072 41,30 L41.0000221,29.959 L39,30 C39.0025627,31.1811485 38.770754,32.3510682 38.318,33.442 Z" id="Path"></path>
                <path d="M26.565,38.322 L25.8,40.17 C27.1315819,40.7208796 28.5589691,41.0029585 30,41 L30.01,41.000023 L30,39 C28.8215295,39.0023523 27.6541963,38.7719442 26.565,38.322 L26.565,38.322 Z" id="Path"></path>
                <path d="M33.417,21.671 L34.177,19.821 C32.8518931,19.2763461 31.4326721,18.9973946 30,19 L29.97,18.9999819 L30,21 C31.1719438,20.9978177 32.3329096,21.2257978 33.417,21.671 L33.417,21.671 Z" id="Path"></path>
                <path d="M30,34 C32.209139,34 34,32.209139 34,30 C34,27.790861 32.209139,26 30,26 C27.790861,26 26,27.790861 26,30 C26,32.209139 27.790861,34 30,34 Z M30,28 C31.1045695,28 32,28.8954305 32,30 C32,31.1045695 31.1045695,32 30,32 C28.8954305,32 28,31.1045695 28,30 C28,28.8954305 28.8954305,28 30,28 Z" id="Shape"></path>
            </g>
        </g>
    </g>
</svg>