<?xml version="1.0" encoding="UTF-8"?>
<svg width="94px" height="86px" viewBox="0 0 94 86" version="1.1" xmlns="http://www.w3.org/2000/svg" xmlns:xlink="http://www.w3.org/1999/xlink">
    <!-- Generator: Sketch 53.2 (72643) - https://sketchapp.com -->
    <title>customer-3</title>
    <desc>Created with Sketch.</desc>
    <g id="Welcome" stroke="none" stroke-width="1" fill="none" fill-rule="evenodd">
        <g id="Artboard" transform="translate(-2651.000000, -1485.000000)" fill="#02436B" fill-rule="nonzero">
            <g id="customer-3" transform="translate(2651.000000, 1485.000000)">
                <path d="M74.1,27.2 C77.1,15 76.1,5.3 70.4,2 C67.9102104,0.665849357 64.9817605,0.412773444 62.3,1.3 C57.6,2.6 52.3,6.1 46.9,11.3 C41.6,6.1 36.2,2.5 31.5,1.3 C28.8182395,0.412773444 25.8897896,0.665849357 23.4,2 C17.7,5.3 16.7,14.9 19.7,27.2 C7.9,30.6 0.1,36.4 0.1,43 C0.1,49.6 7.8,55.4 19.8,58.8 C16.8,71 17.8,80.7 23.5,84 C24.8961631,84.809692 26.4862241,85.2244905 28.1,85.2 C29.2834528,85.186336 30.4600594,85.0182494 31.6,84.7 C36.3,83.4 41.6,79.9 47,74.7 C52.3,79.9 57.7,83.5 62.4,84.7 C63.5399406,85.0182494 64.7165472,85.186336 65.9,85.2 C67.4799229,85.2065127 69.0331022,84.7923315 70.4,84 C76.1,80.7 77.1,71.1 74.1,58.8 C86.1,55.3 93.8,49.6 93.8,43 C93.8,36.4 86.1,30.6 74.1,27.2 Z M62.9,3.2 C63.8780114,2.93508519 64.886745,2.80058737 65.9,2.8 C67.1591139,2.7706773 68.4028161,3.08160284 69.5,3.7 C74.3,6.5 75,15.4 72.2,26.6 C67.4708085,25.4214734 62.6557844,24.6189694 57.8,24.2 C54.9999913,20.164826 51.8906303,16.3533512 48.5,12.8 C53.5,7.8 58.6,4.4 62.9,3.2 Z M61.8,51.7 C60.2,54.6 58.4,57.3 56.6,59.9 C53.5,60.2 50.3,60.3 47,60.3 C43.7,60.3 40.5,60.1 37.4,59.9 C35.6,57.3 33.9,54.5 32.2,51.7 C30.5,48.9 29.1,45.9 27.7,43 C29,40.1 30.5,37.2 32.2,34.3 C33.9,31.4 35.6,28.7 37.4,26.1 C40.5,25.8 43.7,25.7 47,25.7 C50.3,25.7 53.5,25.9 56.6,26.1 C58.4,28.7 60.1,31.5 61.8,34.3 C63.5,37.1 64.9,40.1 66.3,43 C64.9,45.9 63.5,48.8 61.8,51.7 Z M67.3,45.5 C69.006687,49.3967129 70.4434089,53.4061694 71.6,57.5 C67.5230393,58.5216558 63.3795872,59.2567844 59.2,59.7 C60.7,57.5 62.1,55.1 63.5,52.7 C64.9,50.3 66.2,47.8 67.4,45.4 L67.3,45.5 Z M47,71.8 C44.0777154,68.7236086 41.3712823,65.4491587 38.9,62 L47,62.3 L55.1,62 C52.6287177,65.4491587 49.9222846,68.7236086 47,71.8 L47,71.8 Z M34.8,59.6 C30.6204128,59.1567844 26.4769607,58.4216558 22.4,57.4 C23.5565911,53.3061694 24.993313,49.2967129 26.7,45.4 C27.8333333,47.8 29.1,50.2 30.5,52.6 C31.8,55.1 33.3,57.4 34.8,59.6 Z M26.6,40.6 C24.8975982,36.7357826 23.4609262,32.7598766 22.3,28.7 C26.3769607,27.6783442 30.5204128,26.9432156 34.7,26.5 C33.2,28.7 31.8,31.1 30.4,33.5 C29,35.9 27.8,38.2 26.6,40.6 Z M47,14.2 C49.9222846,17.2763914 52.6287177,20.5508413 55.1,24 L47,23.7 L38.9,24 C41.3712823,20.5508413 44.0777154,17.2763914 47,14.2 L47,14.2 Z M63.6,33.3 C62.2,30.9 60.8,28.6 59.3,26.3 C63.4795872,26.7432156 67.6230393,27.4783442 71.7,28.5 C70.5390738,32.5598766 69.1024018,36.5357826 67.4,40.4 C66.2,38.1333333 64.9333333,35.7666667 63.6,33.3 Z M24.6,3.7 C25.6971839,3.08160284 26.9408861,2.7706773 28.2,2.8 C29.213255,2.80058737 30.2219886,2.93508519 31.2,3.2 C35.5,4.4 40.6,7.8 45.6,12.8 C42.2093697,16.3533512 39.1000087,20.164826 36.3,24.2 C31.4442156,24.6189694 26.6291915,25.4214734 21.9,26.6 C19.1,15.4 19.8,6.5 24.6,3.7 L24.6,3.7 Z M2.1,43 C2.1,37.4 9.4,32.4 20.3,29.2 C21.6735206,33.9276627 23.4120798,38.5415313 25.5,43 C23.4462002,47.4614039 21.7410991,52.0752067 20.4,56.8 C9.4,53.6 2.1,48.6 2.1,43 Z M31.1,82.8 C28.9543739,83.5151848 26.6110023,83.3349255 24.6,82.3 C19.8,79.5 19.1,70.6 21.9,59.4 C26.6291915,60.5785266 31.4442156,61.3810306 36.3,61.8 C39.099686,65.835417 42.2090669,69.6469161 45.6,73.2 C40.5,78.2 35.4,81.6 31.1,82.8 Z M69.4,82.3 C67.3889977,83.3349255 65.0456261,83.5151848 62.9,82.8 C58.6,81.6 53.5,78.2 48.5,73.2 C51.8909331,69.6469161 55.000314,65.835417 57.8,61.8 C62.6557844,61.3810306 67.4708085,60.5785266 72.2,59.4 C74.9,70.6 74.2,79.5 69.4,82.3 Z M73.6,56.8 C72.2589009,52.0752067 70.5537998,47.4614039 68.5,43 C70.5537998,38.5385961 72.2589009,33.9247933 73.6,29.2 C84.6,32.4 91.8,37.5 91.8,43 C91.8,48.5 84.6,53.6 73.6,56.8 L73.6,56.8 Z" id="Shape"></path>
                <path d="M47,31.9 C41.5,31.9 36,33.4 36,36.4 L36,36.4 L36,49.4 C36,52.3 41.5,53.9 47,53.9 C52.5,53.9 58,52.4 58,49.4 L58,36.4 L58,36.4 C58,33.5 52.5,31.9 47,31.9 Z M56,42.9 C56,43.6 52.9,45.4 47,45.4 C41.1,45.4 38,43.7 38,42.9 L38,39.1 C40.1,40.3 43.5,40.9 47,40.9 C50.5,40.9 53.9,40.3 56,39.1 L56,42.9 Z M47,33.9 C52.9,33.9 56,35.6 56,36.4 C56,37.2 52.9,38.9 47,38.9 C41.1,38.9 38,37.2 38,36.4 C38,35.6 41.1,33.9 47,33.9 Z M47,52.1 C41.1,52.1 38,50.4 38,49.6 L38,45.6 C40.1,46.8 43.5,47.4 47,47.4 C50.5,47.4 53.9,46.8 56,45.6 L56,49.7 C56,50.4 52.9,52.1 47,52.1 L47,52.1 Z" id="Shape"></path>
            </g>
        </g>
    </g>
</svg>