<?xml version="1.0" encoding="UTF-8"?>
<svg width="76px" height="77px" viewBox="0 0 76 77" version="1.1" xmlns="http://www.w3.org/2000/svg" xmlns:xlink="http://www.w3.org/1999/xlink">
    <!-- Generator: Sketch 53.2 (72643) - https://sketchapp.com -->
    <title>industry-3</title>
    <desc>Created with Sketch.</desc>
    <g id="Welcome" stroke="none" stroke-width="1" fill="none" fill-rule="evenodd">
        <g id="Artboard" transform="translate(-2676.000000, -635.000000)" fill="#DA5201" fill-rule="nonzero">
            <g id="industry-3" transform="translate(2676.000000, 635.000000)">
                <path d="M56.2,63.2 L56.2,70.9 C56.2,71.5 56.6,71.9 57.2,71.9 L68.1,71.9 C68.7,71.9 69.1,71.5 69.1,70.9 L69.1,63.2 C69.1,62.6 68.7,62.2 68.1,62.2 L57.2,62.2 C56.7,62.2 56.2,62.7 56.2,63.2 Z M58.2,64.2 L67.1,64.2 L67.1,69.9 L58.2,69.9 L58.2,64.2 Z" id="Shape"></path>
                <path d="M41.6,63.2 L41.6,70.9 C41.6,71.5 42,71.9 42.6,71.9 L53.5,71.9 C54.1,71.9 54.5,71.5 54.5,70.9 L54.5,63.2 C54.5,62.6 54.1,62.2 53.5,62.2 L42.6,62.2 C42,62.2 41.6,62.7 41.6,63.2 Z M43.6,64.2 L52.5,64.2 L52.5,69.9 L43.6,69.9 L43.6,64.2 Z" id="Shape"></path>
                <path d="M27,63.2 L27,70.9 C27,71.5 27.4,71.9 28,71.9 L38.9,71.9 C39.5,71.9 39.9,71.5 39.9,70.9 L39.9,63.2 C39.9,62.6 39.5,62.2 38.9,62.2 L28,62.2 C27.5,62.2 27,62.7 27,63.2 Z M29,64.2 L37.9,64.2 L37.9,69.9 L29,69.9 L29,64.2 Z" id="Shape"></path>
                <path d="M64.2,53.7 C64,53.9 63.8,54 63.5,54 C63.2,54 63,53.9 62.8,53.7 C62.4,53.3 62.4,52.7 62.8,52.3 L66.5,48.6 C66.9,48.2 67.5,48.2 67.9,48.6 C68.3,49 68.3,49.6 67.9,50 L64.2,53.7 Z" id="Path"></path>
                <path d="M59.6,53 C59.4,53.2 59.1,53.3 58.9,53.3 C58.7,53.3 58.4,53.2 58.2,53 C57.8,52.6 57.8,52 58.2,51.6 L65.7,44.1 C66.1,43.7 66.7,43.7 67.1,44.1 C67.5,44.5 67.5,45.1 67.1,45.5 L59.6,53 Z" id="Path"></path>
                <path d="M18.1,44.8 C18.7,44.8 19.1,45.2 19.1,45.8 L19.1,52.6 C19.1,53.2 18.7,53.6 18.1,53.6 C17.5,53.6 17.1,53.2 17.1,52.6 L17.1,45.8 C17.1,45.3 17.6,44.8 18.1,44.8 Z" id="Path"></path>
                <path d="M2.2,29.6 L2.2,75.6 C2.2,76.2 2.6,76.6 3.2,76.6 L72.7,76.6 C73.3,76.6 73.7,76.2 73.7,75.6 L73.7,29.6 C73.7,29.6 73.7,29.6 73.7,29.6 C74.9,28.6 75.6,27.1 75.6,25.4 C75.6,25.4 73.7,6.7 73.7,6.7 L73.7,1.4 C73.7,0.8 73.3,0.4 72.7,0.4 L3.2,0.4 C2.6,0.4 2.2,0.8 2.2,1.4 L2.2,6.7 C2.2,6.7 0.3,25.4 0.3,25.4 C0.3,27.1 1,28.6 2.2,29.6 Z M2.4,26.3 L9.3,26.3 C8.9,27.8 7.5,29 5.8,29 C4.2,29 2.8,27.8 2.4,26.3 Z M20.8,26.3 L27.7,26.3 C27.3,27.8 25.9,29 24.2,29 C22.5,29 21.2,27.8 20.8,26.3 Z M70,29 C68.3,29 66.9,27.9 66.5,26.3 L73.4,26.3 C73.1,27.8 71.7,29 70,29 Z M73.5,24.3 L66.6,24.3 L66.6,7.7 L71.8,7.7 L73.5,24.3 Z M4.1,7.7 L9.7,7.7 L9.7,24.3 L2.4,24.3 L4.1,7.7 Z M11.7,7.7 L19,7.7 L19,24.3 L11.8,24.3 L11.8,7.7 L11.7,7.7 Z M48.1,24.3 L48.1,7.7 L55.3,7.7 L55.3,24.3 L48.1,24.3 Z M46.1,24.3 L38.9,24.3 L38.9,7.7 L46.1,7.7 L46.1,24.3 Z M36.9,24.3 L29.7,24.3 L29.7,7.7 L36.9,7.7 L36.9,24.3 Z M27.8,24.3 L21,24.3 L21,7.7 L27.8,7.7 L27.8,24.3 Z M11.7,5.7 L11.7,2.4 L19,2.4 L19,5.7 L11.7,5.7 Z M21,2.3 L27.8,2.3 L27.8,5.6 L21,5.6 L21,2.3 Z M29.8,2.3 L37,2.3 L37,5.6 L29.8,5.6 L29.8,2.3 Z M38.9,2.3 L46.1,2.3 L46.1,5.6 L38.9,5.6 L38.9,2.3 Z M48.1,2.3 L55.3,2.3 L55.3,5.6 L48.1,5.6 L48.1,2.3 L48.1,2.3 Z M57.3,2.3 L64.6,2.3 L64.6,5.6 L57.3,5.6 L57.3,2.3 Z M64.6,7.7 L64.6,24.3 L57.3,24.3 L57.3,7.7 L64.6,7.7 Z M64.3,26.3 C63.9,27.8 62.5,29 60.8,29 C59.1,29 57.7,27.9 57.3,26.3 L64.3,26.3 Z M55.2,26.3 C54.8,27.8 53.4,29 51.7,29 C50,29 48.6,27.9 48.2,26.3 L55.2,26.3 Z M46,26.3 C45.6,27.8 44.2,29 42.5,29 C40.8,29 39.4,27.9 39,26.3 L46,26.3 Z M36.8,26.3 C36.4,27.8 35,29 33.4,29 C31.7,29 30.3,27.9 29.9,26.3 L36.8,26.3 Z M18.5,26.3 C18.1,27.8 16.7,29 15,29 C13.3,29 11.9,27.9 11.5,26.3 L18.5,26.3 Z M4.2,2.3 L9.7,2.3 L9.7,5.6 L4.2,5.6 L4.2,2.3 Z M71.7,5.7 L66.6,5.7 L66.6,2.4 L71.7,2.4 L71.7,5.7 Z M71.7,30.7 L71.7,57.6 L24.4,57.6 L24.4,31 C26.2,30.9 27.8,30 28.8,28.6 C29.8,30.1 31.5,31 33.4,31 C35.3,31 37,30 38,28.6 C39,30.1 40.7,31 42.6,31 C44.5,31 46.2,30 47.2,28.6 C48.2,30.1 49.9,31 51.8,31 C53.7,31 55.4,30 56.4,28.6 C57.4,30.1 59.1,31 61,31 C62.9,31 64.6,30 65.6,28.6 C66.6,30.1 68.3,31 70.2,31 C70.6,31 71.2,30.9 71.7,30.7 Z M71.7,74.5 L24.4,74.5 L24.4,59.6 L71.7,59.6 L71.7,74.5 L71.7,74.5 Z M4.2,74.5 L4.2,70.6 L22.4,70.6 L22.4,74.5 L4.2,74.5 Z M4.2,30.7 C4.7,30.9 5.3,31 5.9,31 C7.8,31 9.5,30 10.5,28.6 C11.5,30.1 13.2,31 15.1,31 C17,31 18.7,30 19.7,28.6 C20.4,29.6 21.3,30.3 22.5,30.7 L22.5,68.7 L4.2,68.7 L4.2,30.7 Z" id="Shape"></path>
            </g>
        </g>
    </g>
</svg>