<?xml version="1.0" encoding="UTF-8"?>
<svg width="80px" height="80px" viewBox="0 0 80 80" version="1.1" xmlns="http://www.w3.org/2000/svg" xmlns:xlink="http://www.w3.org/1999/xlink">
    <!-- Generator: Sketch 53.2 (72643) - https://sketchapp.com -->
    <title>industry-4</title>
    <desc>Created with Sketch.</desc>
    <g id="Welcome" stroke="none" stroke-width="1" fill="none" fill-rule="evenodd">
        <g id="Artboard" transform="translate(-2816.000000, -926.000000)" fill="#DA5201" fill-rule="nonzero">
            <g id="industry-4" transform="translate(2816.000000, 926.000000)">
                <path d="M80.0009766,40 C80.0009766,36.4892578 77.1582032,33.6337891 73.6650391,33.6337891 C70.4526368,33.6337891 67.7971192,36.0495606 67.388794,39.1669922 L66.2041016,39.1669922 C65.6513672,39.1669922 65.2041016,39.6142578 65.2041016,40.1669922 C65.2041016,40.7197266 65.6513672,41.1669922 66.2041016,41.1669922 L67.4396973,41.1669922 C67.9873047,44.12146 70.5681153,46.366211 73.6650391,46.366211 C77.1582031,46.3662109 80.0009766,43.5107422 80.0009766,40 Z M69.328125,40 C69.328125,37.5927734 71.2734375,35.6337891 73.6650391,35.6337891 C76.0556641,35.6337891 78.0009766,37.5927735 78.0009766,40 C78.0009766,42.4072265 76.0556641,44.3662109 73.6650391,44.3662109 C71.2734375,44.3662109 69.328125,42.4072266 69.328125,40 Z" id="Shape"></path>
                <path d="M59.3027344,68.3056641 C60.4960938,69.4990235 62.0830078,70.1552735 63.7734375,70.1552735 C63.7802734,70.1552735 63.7861328,70.1552735 63.7919922,70.1552735 C65.4882813,70.1503907 67.0839844,69.4863282 68.2851563,68.2841797 C69.4873047,67.0830078 70.1513672,65.4873047 70.1562501,63.7910156 C70.1611329,62.09375 69.5039063,60.4990234 68.3066407,59.3017578 C67.1132813,58.1083984 65.5263673,57.4521484 63.8359376,57.4521484 C63.8291017,57.4521484 63.8232423,57.4521484 63.8173829,57.4521484 C62.439087,57.4561157 61.1311036,57.9018554 60.043335,58.7113037 L59.2617188,57.9296875 C58.8710938,57.5390625 58.2382813,57.5390625 57.8476563,57.9296875 C57.4570313,58.3203125 57.4570313,58.953125 57.8476563,59.34375 L58.6414795,60.1375732 C57.876709,61.2061767 57.4570313,62.4782714 57.453125,63.8164062 C57.4482422,65.5136719 58.1054688,67.1083984 59.3027344,68.3056641 Z M63.8349609,59.4541016 C64.9443359,59.4541016 66.0507812,59.8740235 66.8925781,60.7158204 C68.5830078,62.4062501 68.5732422,65.1669923 66.8710937,66.8701173 C65.1669921,68.5742189 62.4072265,68.5820314 60.7167968,66.8916017 C59.0263671,65.201172 59.0361327,62.4404298 60.7382812,60.7373048 C61.59375,59.8818359 62.7158203,59.4541016 63.8349609,59.4541016 Z" id="Shape"></path>
                <path d="M0.0009766,40 C0.0009766,43.5107422 2.84375,46.3662109 6.3378907,46.3662109 C9.4348145,46.3662109 12.0156251,44.1214599 12.5632325,41.1669921 L13.9648438,41.1669921 C14.5175782,41.1669921 14.9648438,40.7197265 14.9648438,40.1669921 C14.9648438,39.6142577 14.5175782,39.1669921 13.9648438,39.1669921 L12.6141358,39.1669921 C12.2058106,36.0495605 9.550293,33.633789 6.3378907,33.633789 C2.84375,33.6337891 0.0009766,36.4892578 0.0009766,40 Z M10.6748047,40 C10.6748047,42.4072266 8.7294922,44.3662109 6.3378906,44.3662109 C3.946289,44.3662109 2.0009766,42.4072266 2.0009766,40 C2.0009766,37.5927734 3.9462891,35.6337891 6.3378907,35.6337891 C8.7294923,35.6337891 10.6748047,37.5927734 10.6748047,40 Z" id="Shape"></path>
                <path d="M20.6992188,11.6943359 C19.5058594,10.5009765 17.9189454,9.8447265 16.2285157,9.8447265 C16.2216798,9.8447265 16.2158204,9.8447265 16.209961,9.8447265 C14.5136719,9.8496093 12.9179688,10.5136718 11.7167969,11.7158203 C10.5146485,12.9179687 9.850586,14.5126953 9.8457031,16.2089844 C9.8408203,17.90625 10.4980469,19.5009766 11.696289,20.6982422 C12.8896484,21.8916016 14.4765624,22.5478516 16.1669921,22.5478516 C16.1728515,22.5478516 16.1796874,22.5478516 16.1855468,22.5478516 C17.5229491,22.5440064 18.7944335,22.1242676 19.8632812,21.359375 L20.9082031,22.4042969 C21.1035156,22.5996094 21.359375,22.6972657 21.6152343,22.6972657 C21.8710936,22.6972657 22.1269531,22.5996095 22.3222655,22.4042969 C22.7128905,22.0136719 22.7128905,21.3808594 22.3222655,20.9902344 L21.2897948,19.9577027 C22.0993651,18.8699341 22.5456542,17.5619507 22.548828,16.1835938 C22.5537109,14.4863281 21.8964844,12.8916016 20.6992188,11.6943359 Z M13.1103516,19.2841797 C12.2919922,18.4658203 11.8427735,17.3759766 11.8457032,16.2138672 C11.8486329,15.0507813 12.3056641,13.9550781 13.1308594,13.1298828 C13.9863282,12.274414 15.1083985,11.8466797 16.2275391,11.8466797 C17.3369141,11.8466797 18.4433594,12.2666016 19.2851563,13.1083985 C20.1035157,13.9267579 20.5527344,15.0175782 20.5488282,16.178711 C20.5458985,17.3417969 20.0898438,18.4375001 19.263672,19.2626954 C17.5615234,20.9648438 14.8027344,20.9746094 13.1103516,19.2841797 Z" id="Shape"></path>
                <path d="M40.1699219,39 L40,39 C38.2470703,39 36.8203125,37.5791016 36.8203125,35.8320312 C36.8203125,34.0849608 38.2470703,32.6640625 40,32.6640625 C41.7529297,32.6640625 43.1796875,34.0849609 43.1796875,35.8320313 C43.1796875,36.3847657 43.6269531,36.8320313 44.1796875,36.8320313 C44.7324219,36.8320313 45.1796875,36.3847657 45.1796875,35.8320313 C45.1796875,33.3240357 43.3787842,31.2315674 41,30.7648926 L41,29.850586 C41,29.2978516 40.5527344,28.850586 40,28.850586 C39.4472656,28.850586 39,29.2978516 39,29.850586 L39,30.7648926 C36.6212158,31.2315674 34.8203125,33.3240357 34.8203125,35.8320313 C34.8203125,38.6816406 37.1435547,41 40,41 L40.1699219,41 C41.9228516,41 43.3496094,42.4208984 43.3496094,44.1679688 C43.3496094,45.9150392 41.9228516,47.3359376 40.1699219,47.3359376 C38.4169922,47.3359376 36.9902344,45.9150392 36.9902344,44.1679688 C36.9902344,43.6152344 36.5429688,43.1679688 35.9902344,43.1679688 C35.4375,43.1679688 34.9902344,43.6152344 34.9902344,44.1679688 C34.9902344,46.6147461 36.7075196,48.6591187 39,49.1912842 L39,50.1494141 C39,50.7021485 39.4472656,51.1494141 40,51.1494141 C40.5527344,51.1494141 41,50.7021485 41,50.1494141 L41,49.2521973 C43.4606934,48.8526001 45.3496094,46.7340088 45.3496094,44.1679688 C45.3496094,41.3183594 43.0263672,39 40.1699219,39 Z" id="Path"></path>
                <path d="M40.0849609,23.984375 C31.2607421,23.984375 24.0810547,31.1689453 24.0810547,40 C24.0810547,48.8310547 31.2607422,56.015625 40.0849609,56.015625 C48.9091796,56.015625 56.0888672,48.8310547 56.0888672,40 C56.0888672,31.1689453 48.9091797,23.984375 40.0849609,23.984375 Z M40.0849609,54.015625 C32.3632812,54.015625 26.0810547,47.7285156 26.0810547,40 C26.0810547,32.2714844 32.3632813,25.984375 40.0849609,25.984375 C47.8066405,25.984375 54.0888672,32.2714844 54.0888672,40 C54.0888672,47.7285156 47.8066406,54.015625 40.0849609,54.015625 Z" id="Shape"></path>
                <path d="M40.0849609,15.046875 C40.6376953,15.046875 41.0849609,14.5996094 41.0849609,14.046875 L41.0849609,12.5739746 C44.0800781,12.0595093 46.368164,9.4617309 46.368164,6.3369141 C46.3681641,2.8427734 43.5117188,0 40.0009766,0 C36.4902344,0 33.6347657,2.8427734 33.6347657,6.3369141 C33.6347657,9.5197754 36.0079346,12.1551514 39.084961,12.5995484 L39.084961,14.0468751 C39.0849609,14.5996094 39.5322266,15.046875 40.0849609,15.046875 Z M35.6347656,6.3369141 C35.6347656,3.9453125 37.59375,2 40.0009766,2 C42.4091797,2 44.3681641,3.9453125 44.3681641,6.3369141 C44.3681641,8.7275391 42.4091797,10.6728516 40.0009766,10.6728516 C37.59375,10.6728516 35.6347656,8.7275391 35.6347656,6.3369141 Z" id="Shape"></path>
                <path d="M22.3222656,57.9296875 C21.9316406,57.5390625 21.2988281,57.5390625 20.9082031,57.9296875 L20.0548095,58.7830811 C18.9482421,57.9271851 17.6037597,57.4562378 16.1855468,57.4521485 C16.1796874,57.4521485 16.1728515,57.4521485 16.1669921,57.4521485 C14.4765624,57.4521485 12.8896483,58.1083985 11.696289,59.3017579 C10.4980468,60.4990235 9.8408202,62.0937501 9.8457031,63.7910157 C9.8505859,65.4873048 10.5146484,67.0820313 11.7167969,68.2841798 C12.9179688,69.4863282 14.5136719,70.1503907 16.209961,70.1552736 C16.2158204,70.1552736 16.2216798,70.1552736 16.2285157,70.1552736 C17.9189454,70.1552736 19.5058595,69.4990236 20.6992188,68.3056642 C21.8964844,67.1083986 22.553711,65.513672 22.5488282,63.8164064 C22.5458985,62.5189821 22.1533204,61.2819826 21.4322511,60.2337648 L22.3222657,59.3437502 C22.7128906,58.953125 22.7128906,58.3203125 22.3222656,57.9296875 Z M19.2851562,66.8916016 C17.59375,68.5820313 14.8339843,68.5742188 13.1308593,66.8701172 C12.305664,66.0449219 11.8486327,64.9492188 11.8457031,63.7861328 C11.8427734,62.6240234 12.2919922,61.5341797 13.1103515,60.7158203 C13.9521484,59.8740234 15.0576171,59.4541015 16.1669921,59.4541015 C17.2861327,59.4541015 18.408203,59.8828124 19.2636718,60.7373046 C20.0898437,61.5624999 20.5458984,62.658203 20.548828,63.821289 C20.5527344,64.9824219 20.1035156,66.0732422 19.2851562,66.8916016 Z" id="Shape"></path>
                <path d="M40.0849609,65.2861328 C39.5322265,65.2861328 39.0849609,65.7333984 39.0849609,66.2861328 L39.0849609,67.4004516 C36.0079345,67.8448486 33.6347656,70.4802245 33.6347656,73.6630859 C33.6347656,77.1572266 36.4902344,80 40.0009766,80 C43.5117188,80 46.3681641,77.1572266 46.3681641,73.6630859 C46.3681641,70.538269 44.0800782,67.9404907 41.084961,67.4260254 L41.084961,66.2861328 C41.0849609,65.7333984 40.6376953,65.2861328 40.0849609,65.2861328 Z M44.3681641,73.6630859 C44.3681641,76.0546875 42.4091797,78 40.0009766,78 C37.59375,78 35.6347657,76.0546875 35.6347657,73.6630859 C35.6347657,71.2724609 37.5937501,69.3271484 40.0009766,69.3271484 C42.4091797,69.3271484 44.3681641,71.2724609 44.3681641,73.6630859 Z" id="Shape"></path>
                <path d="M63.2041016,41.1669922 C63.756836,41.1669922 64.2041016,40.7197266 64.2041016,40.1669922 C64.2041016,39.6142578 63.756836,39.1669922 63.2041016,39.1669922 L62.2161866,39.1669922 C62.0163575,33.7868042 59.895752,28.8899536 56.5162354,25.1488037 L57.1396485,24.5253906 C57.5302735,24.1347656 57.5302735,23.5019531 57.1396485,23.1113281 C56.7490235,22.7207031 56.116211,22.7207031 55.725586,23.1113281 L55.1090089,23.7279052 C51.3861085,20.2828368 46.4848634,18.0979003 41.084961,17.8564452 L41.084961,17.046875 C41.084961,16.4941406 40.6376954,16.046875 40.084961,16.046875 C39.5322266,16.046875 39.084961,16.4941406 39.084961,17.046875 L39.084961,17.8564453 C33.6845704,18.0978393 28.782959,20.2828979 25.0600587,23.7279663 L24.4433595,23.1113281 C24.0527345,22.7207031 23.419922,22.7207031 23.029297,23.1113281 C22.638672,23.5019531 22.638672,24.1347656 23.029297,24.5253906 L23.6528322,25.1488647 C20.2731935,28.8899536 18.1525881,33.7868042 17.952759,39.1669921 L16.964844,39.1669921 C16.4121096,39.1669921 15.964844,39.6142577 15.964844,40.1669921 C15.964844,40.7197265 16.4121096,41.1669921 16.964844,41.1669921 L17.9626467,41.1669921 C18.2404787,46.4997558 20.4119875,51.3376464 23.8132326,55.0237426 L23.0292971,55.8076171 C22.6386721,56.1982421 22.6386721,56.8310546 23.0292971,57.2216796 C23.2246096,57.4169921 23.480469,57.5146484 23.7363283,57.5146484 C23.9921876,57.5146484 24.2480471,57.4169922 24.4433595,57.2216796 L25.2319337,56.4331054 C28.9331056,59.7863158 33.7683107,61.9058837 39.084961,62.1435546 L39.084961,63.2861327 C39.084961,63.8388671 39.5322266,64.2861327 40.084961,64.2861327 C40.6376954,64.2861327 41.084961,63.8388671 41.084961,63.2861327 L41.084961,62.1435546 C46.4011231,61.9058227 51.236084,59.7863769 54.9370118,56.4331664 L55.7265626,57.2226561 C55.9218751,57.4179686 56.1777345,57.5156249 56.4335938,57.5156249 C56.6894531,57.5156249 56.9453126,57.4179687 57.140625,57.2226561 C57.53125,56.8320311 57.53125,56.1992186 57.140625,55.8085936 L56.355835,55.0238036 C59.756958,51.3377074 61.9284668,46.4997557 62.2062989,41.1669921 L63.2041016,41.1669921 L63.2041016,41.1669922 Z M40.0849609,60.1689453 C28.9726562,60.1689453 19.9316406,51.1210937 19.9316406,40 C19.9316406,28.8789063 28.9726562,19.8310547 40.0849609,19.8310547 C51.1972656,19.8310547 60.2373047,28.8789062 60.2373047,40 C60.2373047,51.1210938 51.1972656,60.1689453 40.0849609,60.1689453 Z" id="Shape"></path>
                <path d="M57.8476562,22.4042969 C58.0429687,22.5996094 58.2988281,22.6972657 58.5546874,22.6972657 C58.8105467,22.6972657 59.0664062,22.5996095 59.2617186,22.4042969 L60.2348631,21.4312134 C61.2829588,22.1519776 62.5200193,22.5441284 63.8173826,22.5478516 C63.823242,22.5478516 63.8291014,22.5478516 63.8359373,22.5478516 C65.526367,22.5478516 67.1132811,21.8916016 68.3066404,20.6982422 C69.503906,19.5009766 70.1611326,17.90625 70.1562498,16.2089844 C70.151367,14.5126953 69.4873045,12.9169922 68.285156,11.7158203 C67.0839841,10.5136719 65.488281,9.8496094 63.7919919,9.8447265 C63.7861325,9.8447265 63.7802731,9.8447265 63.7734372,9.8447265 C62.0830075,9.8447265 60.4960934,10.5009765 59.3027341,11.6943359 C58.1054685,12.8916015 57.4482419,14.4863281 57.4531247,16.1835937 C57.4572751,17.6026 57.9282224,18.9477539 58.7839352,20.053955 L57.8476559,20.9902343 C57.4570312,21.3808594 57.4570312,22.0136719 57.8476562,22.4042969 Z M60.7167969,13.1083984 C61.5585938,12.2666015 62.6650391,11.8466796 63.7744141,11.8466796 C64.8935547,11.8466796 66.015625,12.274414 66.8710938,13.1298827 C68.5732422,14.8330077 68.5830079,17.5937499 66.8925782,19.2841796 C65.2021485,20.9755858 62.4423829,20.9658202 60.7382813,19.2626952 C59.0361328,17.5595703 59.0263672,14.7988281 60.7167969,13.1083984 Z" id="Shape"></path>
            </g>
        </g>
    </g>
</svg>