<?xml version="1.0" encoding="UTF-8"?>
<svg width="80px" height="72px" viewBox="0 0 80 72" version="1.1" xmlns="http://www.w3.org/2000/svg" xmlns:xlink="http://www.w3.org/1999/xlink">
    <!-- Generator: Sketch 53.2 (72643) - https://sketchapp.com -->
    <title>industry-2</title>
    <desc>Created with Sketch.</desc>
    <g id="Welcome" stroke="none" stroke-width="1" fill="none" fill-rule="evenodd">
        <g id="Artboard" transform="translate(-2499.000000, -384.000000)" fill="#DA5201" fill-rule="nonzero">
            <g id="industry-2" transform="translate(2499.000000, 384.000000)">
                <path d="M65.3803711,2.0869141 C56.0083008,-1.65625 46.2275391,1.84375 40.0712891,10.9941407 C33.9135743,1.8427735 24.1298829,-1.6562499 14.7607422,2.0869141 C5.715332,5.6982422 -2.4780273,16.4755859 0.9072266,31.6044922 C3.9257813,45.0986328 14.328125,55.1972656 22.5229493,61.2929688 C31.3530274,67.8613282 39.3510743,71.2207032 39.6870118,71.3603516 C39.8100586,71.4121094 39.940918,71.4375 40.0712891,71.4375 C40.2016602,71.4375 40.3325196,71.4121094 40.4555664,71.3603516 C40.7915039,71.2207032 48.7885742,67.8613282 57.6186523,61.2929688 C65.8129882,55.1972657 76.215332,45.0986329 79.2358398,31.6044922 C82.6210938,16.4755859 74.4267578,5.6982422 65.3803711,2.0869141 Z M77.2836914,31.1669922 C72.0805664,54.4169922 43.7211914,67.7226563 40.0712891,69.3466797 C36.4208985,67.7226563 8.0595703,54.4169922 2.859375,31.1669922 C-0.2705078,17.1816406 7.2192383,7.2519531 15.5024414,3.944336 C17.5844726,3.1132813 19.9169922,2.6142579 22.3452148,2.6142579 C28.1367187,2.6142579 34.46875,5.451172 39.2133789,13.373047 C39.574707,13.9765626 40.5678711,13.9765626 40.9291992,13.373047 C47.6621094,2.1298829 57.5917969,1.1308595 64.6386719,3.9443361 C72.9228516,7.2509766 80.4135742,17.1816406 77.2836914,31.1669922 Z" id="Shape"></path>
                <path d="M53.8935547,29.5957031 L46.5307617,29.5957031 L46.5307617,22.2753906 C46.5307617,21.7226562 46.0830078,21.2753906 45.5307617,21.2753906 L34.6123047,21.2753906 C34.0600586,21.2753906 33.6123047,21.7226562 33.6123047,22.2753906 L33.6123047,29.5957031 L26.2495117,29.5957031 C25.6972656,29.5957031 25.2495117,30.0429687 25.2495117,30.5957031 L25.2495117,41.4589843 C25.2495117,42.0117187 25.6972656,42.4589843 26.2495117,42.4589843 L33.6123047,42.4589843 L33.6123047,49.7792968 C33.6123047,50.3320312 34.0600586,50.7792968 34.6123047,50.7792968 L45.5307617,50.7792968 C46.0830078,50.7792968 46.5307617,50.3320312 46.5307617,49.7792968 L46.5307617,42.4589843 L53.8935547,42.4589843 C54.4458008,42.4589843 54.8935547,42.0117187 54.8935547,41.4589843 L54.8935547,30.5957031 C54.8935547,30.0429688 54.4458008,29.5957031 53.8935547,29.5957031 Z M52.8935547,40.4589844 L45.5307617,40.4589844 C44.9785156,40.4589844 44.5307617,40.90625 44.5307617,41.4589844 L44.5307617,48.7792969 L35.6123047,48.7792969 L35.6123047,41.4589844 C35.6123047,40.90625 35.1645508,40.4589844 34.6123047,40.4589844 L27.2495117,40.4589844 L27.2495117,31.5957032 L34.6123047,31.5957032 C35.1645508,31.5957032 35.6123047,31.1484376 35.6123047,30.5957032 L35.6123047,23.2753907 L44.5307617,23.2753907 L44.5307617,30.5957032 C44.5307617,31.1484376 44.9785156,31.5957032 45.5307617,31.5957032 L52.8935547,31.5957032 L52.8935547,40.4589844 L52.8935547,40.4589844 Z" id="Shape"></path>
            </g>
        </g>
    </g>
</svg>