<?xml version="1.0" encoding="UTF-8"?>
<svg width="50px" height="42px" viewBox="0 0 50 42" version="1.1" xmlns="http://www.w3.org/2000/svg" xmlns:xlink="http://www.w3.org/1999/xlink">
    <!-- Generator: Sketch 53.2 (72643) - https://sketchapp.com -->
    <title>customer-4</title>
    <desc>Created with Sketch.</desc>
    <g id="Welcome" stroke="none" stroke-width="1" fill="none" fill-rule="evenodd">
        <g id="Artboard" transform="translate(-2889.000000, -1294.000000)" fill="#02436B" fill-rule="nonzero">
            <g id="customer-4" transform="translate(2889.000000, 1294.000000)">
                <g id="Group" transform="translate(7.000000, 0.000000)">
                    <path d="M5.6875,25.1477032 C5.609375,25.1477032 5.53125,25.1301251 5.4570312,25.0920391 C5.211914,24.965086 5.1162109,24.6633282 5.243164,24.4172344 L9.3486328,16.4924297 C9.4091797,16.3771953 9.5117187,16.2893047 9.6347656,16.2482891 C9.8964844,16.1584454 10.1875,16.302 10.2744141,16.5627422 C10.3300782,16.7287578 10.2958985,16.902586 10.1972657,17.0295391 L6.131836,24.8781719 C6.0429688,25.0490704 5.8681641,25.1477032 5.6875,25.1477032 Z" id="Path"></path>
                    <path d="M23.4921875,20.8635235 C23.4140625,20.8635235 23.3349609,20.8459454 23.2617187,20.8068829 L13.743164,15.8605938 C13.4980468,15.7336407 13.4023437,15.4318829 13.5302734,15.1867657 C13.6572265,14.9406719 13.9609375,14.8449688 14.2041015,14.9738751 L23.7226562,19.9201642 C23.9677734,20.0471173 24.0634765,20.3488751 23.9355468,20.5939923 C23.8466797,20.7658672 23.6728516,20.8635235 23.4921875,20.8635235 Z" id="Path"></path>
                    <path d="M27.6542969,19.5480938 C27.5761719,19.5480938 27.4970703,19.5295391 27.4238281,19.4914532 C27.1787109,19.3645001 27.0830078,19.0617657 27.2109375,18.8176251 L33.8339844,6.0959454 C33.9619141,5.8498516 34.2666016,5.7570782 34.5078125,5.8830548 C34.7529297,6.0100079 34.8486328,6.3127423 34.7207031,6.5568829 L28.0976562,19.2785626 C28.0087891,19.4504375 27.8339844,19.5480938 27.6542969,19.5480938 Z" id="Path"></path>
                    <path d="M4.2666016,30.9768028 C3.6982422,30.9768028 3.1347657,30.840084 2.6152344,30.5705528 C1.7636719,30.12817 1.1357422,29.3810997 0.8466797,28.4660606 L0.8466797,28.4660606 C0.25,26.5773907 1.2998047,24.5549297 3.1884766,23.95825 C5.0751954,23.3605937 7.0996094,24.4123516 7.6962891,26.3010234 C7.9853516,27.215084 7.9013672,28.1877402 7.4589844,29.0393027 C7.0166016,29.8908652 6.2685547,30.5187949 5.3535156,30.8078574 C4.9970703,30.9211388 4.6308594,30.9768028 4.2666016,30.9768028 Z M1.7998047,28.1652794 C2.0087891,28.8244591 2.4619141,29.3644982 3.0761719,29.6828575 C3.6904297,30.00317 4.3916016,30.0637169 5.0527344,29.8547325 C5.7128907,29.6457481 6.2519532,29.1926231 6.5712891,28.5783653 C6.890625,27.9641075 6.9511719,27.261959 6.7431641,26.6018047 C6.3115235,25.2385234 4.8476563,24.4787578 3.4892578,24.911375 C2.1269531,25.3420391 1.3691406,26.802 1.7998047,28.1652794 L1.7998047,28.1652794 Z" id="Shape"></path>
                    <path d="M11.2333984,17.5725079 C9.7070312,17.5725079 8.2890625,16.5920391 7.805664,15.0617657 L7.805664,15.0617657 C7.5166015,14.1477032 7.6005859,13.1750469 8.0429687,12.3234844 C8.4863281,11.4719219 9.2333984,10.8439922 10.1484375,10.5549297 C11.0615234,10.2658672 12.0351563,10.3508281 12.8867188,10.7922344 C13.7382813,11.2346172 14.366211,11.9816875 14.6552735,12.8967266 C15.2519532,14.7853985 14.2021485,16.8078594 12.3134766,17.4045391 C11.9550781,17.5178204 11.5908203,17.5725079 11.2333984,17.5725079 Z M11.2333984,11.3859844 C10.9707031,11.3859844 10.7070312,11.427 10.4492187,11.5080547 C9.7890624,11.7170391 9.2499999,12.1701641 8.930664,12.7844219 C8.6113281,13.3986797 8.5507812,14.1008282 8.758789,14.7609844 L8.758789,14.7609844 C8.9677734,15.4211407 9.4208984,15.9602032 10.0351562,16.2795391 C10.6503906,16.5998516 11.352539,16.6594219 12.0126953,16.4514141 C13.375,16.02075 14.1328125,14.5607891 13.7021484,13.1975078 C13.493164,12.5383281 13.040039,11.998289 12.4257812,11.6799297 C12.0507813,11.4846172 11.6445313,11.3859844 11.2333984,11.3859844 Z" id="Shape"></path>
                    <path d="M26.2324219,25.3791485 C24.7070313,25.3791485 23.288086,24.3996563 22.8046875,22.8693829 C22.2080078,20.9816876 23.2587891,18.9592266 25.1464844,18.3615704 C26.0625,18.0715313 27.0341797,18.1564923 27.8857422,18.5988751 C28.7373047,19.0422345 29.3652344,19.7893048 29.6542969,20.7043439 C30.2509766,22.5920392 29.2011719,24.6145002 27.3134766,25.2121564 C26.9541016,25.3254375 26.5908203,25.3791485 26.2324219,25.3791485 Z M26.2324219,19.1936016 C25.9697266,19.1936016 25.7060547,19.2336407 25.4482422,19.3146954 C24.0859375,19.746336 23.3271484,21.2053204 23.7578125,22.5686017 C24.1894531,23.931883 25.6513672,24.6887189 27.0117188,24.2590314 C28.3740235,23.8273908 29.131836,22.3674298 28.7011719,21.0051251 C28.4921875,20.3449688 28.0390625,19.8059063 27.4248047,19.4865704 C27.0498047,19.2922344 26.6425781,19.1936016 26.2324219,19.1936016 Z" id="Shape"></path>
                    <path d="M35.7314453,7.1945782 C34.2050781,7.1945782 32.7871094,6.2141094 32.3037109,4.683836 L32.3037109,4.683836 C32.0146484,3.7697735 32.0986328,2.7971172 32.5410156,1.9455547 C32.9833984,1.0939922 33.7314453,0.4660625 34.6464844,0.177 C35.5615235,-0.1140156 36.5351563,-0.0271016 37.3847657,0.4143047 C38.2363282,0.8566875 38.8642579,1.6047344 39.1533204,2.5197735 C39.4423829,3.433836 39.3583985,4.4064923 38.9160157,5.2580548 C38.4736329,6.1096173 37.7265626,6.737547 36.8115235,7.0266095 C36.453125,7.1398907 36.0888672,7.1945782 35.7314453,7.1945782 Z M35.7314453,1.0080547 C35.46875,1.0080547 35.2050781,1.0490703 34.9472656,1.130125 C34.2871093,1.3391094 33.7480468,1.7922344 33.4287109,2.4064922 C33.109375,3.02075 33.0488281,3.7228985 33.2568359,4.3830547 L33.2568359,4.3830547 C33.4658203,5.043211 33.9189453,5.5822735 34.5332031,5.9016094 C35.1484375,6.2219219 35.8505859,6.2814922 36.5107422,6.0734844 C37.1699219,5.8645 37.709961,5.411375 38.0283203,4.7971172 C38.3476562,4.1828594 38.4082031,3.4807109 38.2001953,2.8205547 C37.9912109,2.1603985 37.5380859,1.621336 36.9238281,1.302 C36.5488281,1.1066875 36.1425781,1.0080547 35.7314453,1.0080547 Z" id="Shape"></path>
                </g>
                <path d="M49,41.9924278 L1,41.9924278 C0.7236328,41.9924278 0.5,41.768795 0.5,41.4924278 L0.5,1.4924278 C0.5,1.2160606 0.7236328,0.9924278 1,0.9924278 C1.2763672,0.9924278 1.5,1.2160606 1.5,1.4924278 L1.5,40.9924278 L49,40.9924278 C49.2763672,40.9924278 49.5,41.2160606 49.5,41.4924278 C49.5,41.768795 49.2763672,41.9924278 49,41.9924278 Z" id="Path"></path>
            </g>
        </g>
    </g>
</svg>