<svg xmlns="http://www.w3.org/2000/svg" xmlns:xlink="http://www.w3.org/1999/xlink" version="1.1" x="0px" y="0px" viewBox="0 0 100 100" style="enable-background:new 0 0 100 100;" xml:space="preserve">
  <path fill="#DA5201" d="M78.6982422,58.8339844c0.0893555,0.0244141,0.1791992,0.0361328,0.2675781,0.0361328  c0.4379883,0,0.840332-0.2900391,0.9633789-0.7324219C82.9072266,47.3984375,79.875,35.84375,72.0151367,27.984375  c-7.8603516-7.8603516-19.4169922-10.890625-30.1552734-7.9130859c-0.5322266,0.1474609-0.8442383,0.6992188-0.6962891,1.2314453  c0.1474609,0.53125,0.6982422,0.8417969,1.2304688,0.6962891C52.4418945,19.2119141,63.25,22.046875,70.6010742,29.3984375  c7.3510742,7.3505859,10.1865234,18.1582031,7.4003906,28.2041016  C77.8540039,58.1347656,78.1660156,58.6865234,78.6982422,58.8339844z"></path>
  <path fill="#DA5201" d="M41.2597656,11.4052734c-0.5322266,0.1474609-0.8442383,0.6992188-0.6962891,1.2314453  c0.1474609,0.53125,0.6977539,0.84375,1.2304688,0.6962891c12.6635742-3.5136719,26.2827148,0.0605469,35.5473633,9.3251953  s12.8383789,22.8837891,9.3271484,35.5439453c-0.1479492,0.5322266,0.1640625,1.0839844,0.6962891,1.2314453  c0.0893555,0.0244141,0.1791992,0.0361328,0.2675781,0.0361328c0.4379883,0,0.840332-0.2900391,0.9628906-0.7324219  c3.7041016-13.3535156-0.0664062-27.7207031-9.8398438-37.4931641  C68.9819336,11.4697266,54.6152344,7.7001953,41.2597656,11.4052734z">
  </path>
  <path fill="#DA5201" d="M21.300293,41.1650391c-0.5322266-0.1445312-1.0830078,0.1650391-1.230957,0.6962891  c-2.9780273,10.7392578,0.0541992,22.2939453,7.9140625,30.1533203c5.8632812,5.8623047,13.7807617,9.0390625,21.8828125,9.0390625  c2.7607422,0,5.5429688-0.3691406,8.2724609-1.1259766c0.5322266-0.1474609,0.8442383-0.6992188,0.6962891-1.2314453  C58.6879883,78.1650391,58.1362305,77.8544922,57.6044922,78C47.5561523,80.7890625,36.75,77.9521484,29.3974609,70.6005859  C22.0463867,63.25,19.2109375,52.4423828,21.9970703,42.3964844C22.1445312,41.8642578,21.8325195,41.3125,21.300293,41.1650391z">
  </path>
  <path fill="#DA5201" d="M12.6337891,40.5654297c-0.5322266-0.1445312-1.0830078,0.1650391-1.230957,0.6962891  c-3.703125,13.3535156,0.0673828,27.7197266,9.840332,37.4921875c7.2895508,7.2900391,17.1347656,11.2402344,27.2089844,11.2402344  c3.4331055,0,6.8930664-0.4589844,10.2871094-1.4003906c0.5322266-0.1474609,0.8442383-0.6992188,0.6962891-1.2314453  c-0.1474609-0.5322266-0.6967773-0.8427734-1.2304688-0.6962891c-12.6606445,3.5146484-26.2822266-0.0595703-35.5478516-9.3261719  c-9.2636719-9.2636719-12.8378906-22.8837891-9.3266602-35.5429688  C13.4780273,41.2646484,13.1660156,40.7128906,12.6337891,40.5654297z">
  </path>
  <path fill="#DA5201" d="M30.1601562,50.0380859c0,10.9667969,8.9160156,19.8896484,19.875,19.8896484  c10.9594727,0,19.8754883-8.9228516,19.8754883-19.8896484s-8.9160156-19.8896484-19.8754883-19.8896484  C39.0761719,30.1484375,30.1601562,39.0712891,30.1601562,50.0380859z M50.0351562,32.1484375  c9.8564453,0,17.8754883,8.0253906,17.8754883,17.8896484s-8.019043,17.8896484-17.8754883,17.8896484  s-17.875-8.0253906-17.875-17.8896484S40.1787109,32.1484375,50.0351562,32.1484375z">
  </path>
  <path fill="#DA5201" d="M37.2441406,46.4179688l4.8999023,5.7773438l-0.5683594,7.5537109  c-0.0263672,0.3457031,0.1289062,0.6806641,0.4091797,0.8837891c0.28125,0.2050781,0.6474609,0.25,0.9672852,0.1162109  L49.9609375,57.875l7.0087891,2.8740234c0.1220703,0.0507812,0.2509766,0.0751953,0.3793945,0.0751953  c0.2080078,0,0.4140625-0.0644531,0.5878906-0.1914062c0.2802734-0.203125,0.4355469-0.5380859,0.4091797-0.8837891  l-0.5683594-7.5537109l4.8999023-5.7773438c0.2241211-0.2636719,0.2954102-0.6259766,0.1884766-0.9550781  c-0.1074219-0.3300781-0.3774414-0.5810547-0.7143555-0.6630859l-7.3598633-1.7929688l-3.9799805-6.4462891  c-0.3652344-0.5898438-1.3369141-0.5898438-1.7021484,0l-3.9799805,6.4462891l-7.3598633,1.7929688  c-0.3369141,0.0820312-0.6069336,0.3330078-0.7143555,0.6630859C36.9487305,45.7919922,37.0200195,46.1542969,37.2441406,46.4179688  z M46.0019531,44.8525391c0.2553711-0.0625,0.4760742-0.2226562,0.6142578-0.4462891l3.3447266-5.4169922l3.3447266,5.4169922  c0.1381836,0.2236328,0.3588867,0.3837891,0.6142578,0.4462891l6.1850586,1.5068359l-4.1176758,4.8554688  c-0.1699219,0.2001953-0.2543945,0.4589844-0.234375,0.7216797l0.4775391,6.3476562l-5.8901367-2.4150391  c-0.121582-0.0498047-0.2504883-0.0751953-0.3793945-0.0751953s-0.2578125,0.0253906-0.3793945,0.0751953l-5.8901367,2.4150391  l0.4775391-6.3476562c0.0200195-0.2626953-0.0644531-0.5214844-0.234375-0.7216797l-4.1176758-4.8554688L46.0019531,44.8525391z">
  </path>
</svg>
