<?xml version="1.0" encoding="UTF-8"?>
<svg width="789px" height="1957px" viewBox="0 0 789 1957" version="1.1" xmlns="http://www.w3.org/2000/svg" xmlns:xlink="http://www.w3.org/1999/xlink">
    <!-- Generator: Sketch 53.2 (72643) - https://sketchapp.com -->
    <title>industry-1</title>
    <desc>Created with Sketch.</desc>
    <g id="Welcome" stroke="none" stroke-width="1" fill="none" fill-rule="evenodd">
        <g id="Artboard" transform="translate(-1285.000000, -565.000000)" fill="#DA5201" fill-rule="nonzero">
            <g id="industry-1" transform="translate(1285.000000, 565.000000)">
                <path d="M655.684633,1942.17476 C656.332172,1949.67258 650.776967,1956.2843 643.279144,1956.93184 C635.781321,1957.57938 629.169604,1952.02417 628.522065,1944.52635 L627.056581,1927.65625 L415.822455,1759.02339 L187.036606,1941.66354 L186.798039,1944.52635 C186.1505,1952.02417 179.538783,1957.57938 172.04096,1956.93184 C164.543137,1956.2843 158.987931,1949.67258 159.635471,1942.17476 L195.863589,1524.64825 C144.469419,1521.44464 98.2214831,1499.2579 64.0382258,1465.07464 C26.9921633,1428.02858 4.0556407,1376.80481 4.0556407,1320.26441 C4.0556407,1263.72401 26.9921633,1212.50024 64.0382258,1175.45418 C101.084288,1138.40812 152.308053,1115.4716 208.848455,1115.4716 C216.41444,1115.4716 223.912264,1115.88057 231.273763,1116.69851 L244.667601,962.345599 L97.6080248,961.459493 L97.6080248,1048.84321 C97.6080248,1056.37512 91.5075232,1062.47562 83.9756191,1062.47562 L13.6324057,1062.47562 C6.10050155,1062.47562 0,1056.37512 0,1048.84321 L0,751.281878 C0,743.749974 6.10050155,737.649472 13.6324057,737.649472 L83.9756191,737.649472 C91.5075232,737.649472 97.6080248,743.749974 97.6080248,751.281878 L97.6080248,934.296925 L247.019191,935.183031 L280.793476,545.773362 C280.418585,545.773362 280.009613,545.773362 279.634722,545.773362 C248.620999,545.773362 220.09519,534.9356 197.635802,516.838581 C174.73336,498.400752 158.204068,472.431019 151.762756,442.678294 C150.808488,438.281843 150.058706,433.680906 149.547491,428.875483 C149.036275,424.104141 148.763627,419.435042 148.763627,414.868186 C148.763627,378.742311 163.418463,346.024538 187.104768,322.338233 C210.791073,298.651928 243.508847,283.997092 279.634722,283.997092 C287.711922,283.997092 295.652799,284.746874 303.321027,286.144196 L303.900404,279.56656 C304.377538,272.477709 310.273554,266.854342 317.498729,266.854342 L394.078768,266.854342 L393.669796,13.5642437 C393.669796,6.06642054 399.736216,1.13686838e-13 407.234039,1.13686838e-13 C414.731862,1.13686838e-13 420.798283,6.06642054 420.798283,13.5642437 L421.207255,266.854342 L497.821375,266.854342 C504.842064,266.854342 510.77216,272.205061 511.385619,279.327993 L533.708683,536.537407 L599.178311,536.537407 L599.178311,393.124499 C599.178311,385.592595 605.278813,379.492094 612.810717,379.492094 L660.592299,379.492094 C668.124203,379.492094 674.224705,385.592595 674.224705,393.124499 L674.224705,595.327157 C674.224705,602.859061 668.124203,608.959563 660.592299,608.959563 L612.810717,608.959563 C605.278813,608.959563 599.178311,602.859061 599.178311,595.327157 L599.178311,563.699976 L536.094354,563.699976 L548.3976,705.476995 C559.951064,703.466215 571.845338,702.409704 583.978179,702.409704 C640.518582,702.409704 691.742346,725.346226 728.788409,762.392289 C765.834471,799.438351 788.770994,850.662116 788.770994,907.202518 C788.770994,963.742921 765.834471,1014.96669 728.788409,1052.01275 C691.742346,1089.05881 640.518582,1111.99533 583.978179,1111.99533 L583.67145,1111.99533 L623.546237,1571.64597 C623.716642,1572.46392 623.784804,1573.31594 623.784804,1574.16797 L623.784804,1574.33837 L655.684633,1942.1066 L655.684633,1942.17476 Z M212.188395,398.475219 C211.097802,403.042074 206.496865,405.836718 201.930009,404.746125 C197.363153,403.655533 194.56851,399.054596 195.659103,394.48774 C199.544338,378.537825 207.826025,364.326042 219.140922,353.249713 C230.455818,342.173383 244.838006,334.164345 260.856083,330.619919 C265.422939,329.597489 269.955714,332.494375 270.978144,337.061231 C272.000575,341.628087 269.103688,346.160862 264.536833,347.183292 C251.68829,350.012016 240.168907,356.453328 231.069277,365.348473 C221.935565,374.277698 215.289767,385.694838 212.188395,398.475219 Z M208.814374,1450.48797 C213.517554,1450.48797 217.334628,1454.30504 217.334628,1459.00822 C217.334628,1463.7114 213.517554,1467.52847 208.814374,1467.52847 C179.232054,1467.52847 151.694594,1458.76965 128.587667,1443.73993 C104.765038,1428.23306 85.7137508,1406.01224 74.092125,1379.76986 C72.1835882,1375.47565 74.160287,1370.43166 78.4544948,1368.55721 C82.7487026,1366.64867 87.7926927,1368.62537 89.6671485,1372.91958 C99.9255338,1396.12875 116.795636,1415.79349 137.823622,1429.49406 C158.204068,1442.78566 182.606074,1450.48797 208.814374,1450.48797 Z M612.674393,776.978963 C608.073456,775.990613 605.142489,771.457838 606.164919,766.856902 C607.153269,762.255965 611.686044,759.324997 616.286981,760.347428 C647.130298,767.095469 674.429191,783.352112 694.980042,805.845582 C715.39457,828.168646 729.1633,856.694455 733.150778,888.219393 C733.730156,892.854411 730.458378,897.114538 725.789279,897.693915 C721.154261,898.273292 716.894135,895.001515 716.314757,890.332416 C712.770332,862.351903 700.569329,837.063791 682.47231,817.262722 C664.238968,797.325328 640.041448,782.94314 612.674393,776.944882 L612.674393,776.978963 Z M493.902058,536.605569 L410.062763,425.637787 C407.472606,457.503535 393.49939,486.131587 372.164676,507.466302 C359.656943,519.974034 344.593135,529.993853 327.859357,536.605569 L493.902058,536.605569 Z M405.938961,380.582686 L408.563199,378.605987 L470.897374,294.221396 L330.210947,294.221396 C346.024538,300.833113 360.236321,310.47804 372.164676,322.406395 C388.046428,338.288147 399.87254,358.259622 405.938961,380.582686 Z M425.671868,401.167619 L503.546985,504.228606 L487.358504,317.635053 L425.671868,401.167619 Z M352.874821,341.696249 C334.130264,322.951691 308.228693,311.364146 279.634722,311.364146 C251.040751,311.364146 225.13918,322.951691 206.394622,341.696249 C187.650064,360.440807 176.06252,386.342377 176.06252,414.936348 C176.06252,418.889746 176.267006,422.604577 176.607816,426.046759 C176.982707,429.625266 177.596165,433.271934 178.380029,436.952684 C183.492181,460.502664 196.57929,481.087597 214.676309,495.64019 C232.432517,509.954216 255.02823,518.508551 279.634722,518.508551 C308.228693,518.508551 334.130264,506.921006 352.874821,488.176448 C371.619379,469.43189 383.206924,443.530319 383.206924,414.936348 C383.206924,386.342377 371.619379,360.440807 352.874821,341.696249 Z M428.977726,773.400456 L409.994601,744.465675 L284.61055,935.421598 L381.162063,936.000975 C380.855334,933.751628 380.582686,931.502281 380.344119,929.218853 C379.560256,921.823273 379.151283,914.529936 379.151283,907.304761 C379.151283,856.115078 397.929922,809.321845 428.977726,773.434537 L428.977726,773.400456 Z M393.703877,719.654697 L304.820591,584.284908 L277.760266,896.262513 L393.703877,719.654697 Z M323.94004,563.802219 L409.994601,694.843718 L496.049162,563.802219 L323.974121,563.802219 L323.94004,563.802219 Z M426.285326,719.654697 L448.574309,753.633468 C469.534133,735.127477 494.345112,720.881613 521.609923,712.190955 L511.044809,590.555815 L426.285326,719.688778 L426.285326,719.654697 Z M646.993974,406.825067 L626.477204,406.825067 L626.477204,581.762913 L646.993974,581.762913 L646.993974,406.825067 Z M70.3432134,764.914284 L27.2648114,764.914284 L27.2648114,1035.21081 L70.3432134,1035.21081 L70.3432134,764.914284 Z M543.524015,1229.37035 L270.705496,977.682056 L258.231845,1121.46985 C294.937097,1130.56949 327.757114,1149.55261 353.658685,1175.45418 C369.097384,1190.89288 382.04817,1208.75133 391.965745,1228.45016 L543.524015,1229.33626 L543.524015,1229.37035 Z M294.528125,962.652328 L564.995054,1212.15943 L556.13399,1110.22312 C518.372227,1105.07689 483.88224,1089.63819 455.594998,1066.83799 C423.013549,1040.56153 398.611543,1004.53789 386.921755,963.197625 L294.528125,962.652328 Z M709.498555,781.750305 C677.360158,749.611908 632.986678,729.742677 583.978179,729.742677 C534.9356,729.742677 490.562119,749.611908 458.457804,781.750305 C426.319407,813.888701 406.450176,858.262182 406.450176,907.27068 C406.450176,913.882397 406.790986,920.221466 407.438525,926.287886 C408.086065,932.524712 409.108495,938.761537 410.471736,944.998363 C419.196475,985.350284 441.655864,1020.59005 472.669587,1045.60552 C503.103932,1070.10977 541.819964,1084.79868 584.01226,1084.79868 C633.05484,1084.79868 677.42832,1064.92945 709.532636,1032.79106 C741.671032,1000.65266 761.540263,956.279179 761.540263,907.27068 C761.540263,858.228101 741.671032,813.85462 709.532636,781.750305 L709.498555,781.750305 Z M205.98565,1497.79241 C207.826025,1497.11079 209.836805,1496.80406 211.949828,1496.97447 C213.108582,1497.07671 214.233256,1497.31528 215.323848,1497.69017 C246.576138,1496.5655 275.817648,1487.36362 300.935356,1472.09533 L345.888214,1433.17481 C371.210407,1402.5019 386.41054,1363.17241 386.41054,1320.26441 C386.41054,1296.06689 381.571035,1272.95996 372.778134,1251.93198 C370.187977,1249.51223 368.518007,1246.10412 368.415764,1242.32113 C359.725105,1224.599 348.205723,1208.54685 334.402912,1194.74404 C302.264515,1162.60564 257.891035,1142.73641 208.882536,1142.73641 C159.839957,1142.73641 115.466476,1162.60564 83.3621608,1194.74404 C51.2237644,1226.88243 31.3545331,1271.25591 31.3545331,1320.26441 C31.3545331,1369.30699 51.2237644,1413.68047 83.3621608,1445.78479 C114.853018,1477.27564 158.169987,1497.00855 206.053812,1497.75833 L205.98565,1497.79241 Z M223.230643,1524.58009 L221.833322,1540.56409 L242.997632,1522.2285 C236.488158,1523.31909 229.910522,1524.10296 223.230643,1524.58009 Z M405.700394,1376.90706 L408.25647,1379.12232 L549.829003,1256.53291 L403.246561,1255.68089 C409.994601,1275.99317 413.64127,1297.70278 413.64127,1320.26441 C413.64127,1339.92916 410.880708,1358.91228 405.700394,1376.90706 Z M365.689283,1451.95345 C361.872209,1456.48622 357.85065,1460.88268 353.658685,1465.07464 C342.514193,1476.21913 330.108704,1486.06855 316.646703,1494.41839 L241.2595,1559.71762 L576.309951,1560.56964 L408.290551,1415.07779 L365.723364,1451.95345 L365.689283,1451.95345 Z M429.045888,1397.1171 L593.384539,1539.43941 L570.413935,1274.69809 L429.045888,1397.1171 Z M623.852966,1890.23529 L599.723608,1612.20238 L437.668385,1741.57391 L623.852966,1890.20121 L623.852966,1890.23529 Z M394.044687,1741.60799 L216.72117,1600.03546 L190.308384,1904.24259 L394.044687,1741.60799 Z M243.849657,1586.88019 L415.856536,1724.19259 L586.738741,1587.76629 L243.849657,1586.88019 Z" id="Shape"></path>
            </g>
        </g>
    </g>
</svg>