<?xml version="1.0" encoding="utf-8"?>
<!-- Generator: Adobe Illustrator 23.0.0, SVG Export Plug-In . SVG Version: 6.00 Build 0)  -->
<svg version="1.1" id="Layer_1" xmlns="http://www.w3.org/2000/svg" xmlns:xlink="http://www.w3.org/1999/xlink" x="0px" y="0px"
	 viewBox="0 0 2876 225" style="enable-background:new 0 0 2876 225;" xml:space="preserve">
<style type="text/css">
	.st0{fill:none;stroke:#666667;stroke-width:0.7174;stroke-miterlimit:10;}
	.st1{fill:none;stroke:#666667;stroke-width:1.4139;stroke-miterlimit:10;}
	.st2{fill:none;stroke:#666667;stroke-miterlimit:10;}
	.st3{fill:none;stroke:#666667;stroke-width:1.4348;stroke-miterlimit:10;}
	.st4{fill:#666667;stroke:#666667;stroke-miterlimit:10;}
	.st5{fill:none;stroke:#666667;stroke-width:1.175;stroke-miterlimit:10;}
	.st6{fill:none;stroke:#666667;stroke-width:1.507;stroke-miterlimit:10;}
	.st7{fill:#666667;stroke:#666667;stroke-width:1.3988;stroke-miterlimit:10;}
	.st8{fill:none;stroke:#666667;stroke-width:1.3988;stroke-miterlimit:10;}
	.st9{fill:#666667;stroke:#666667;stroke-width:1.263;stroke-miterlimit:10;}
	.st10{fill:none;stroke:#666667;stroke-width:1.263;stroke-miterlimit:10;}
	.st11{fill:#666667;stroke:#666667;stroke-width:1.507;stroke-miterlimit:10;}
	.st12{fill:#666667;stroke:#666667;stroke-width:1.4348;stroke-miterlimit:10;}
	.st13{fill:none;stroke:#666667;stroke-width:0.6994;stroke-miterlimit:10;}
	.st14{fill:#DBDBDA;stroke:#666667;stroke-width:1.3988;stroke-miterlimit:10;}
	.st15{fill:#9B9B9B;stroke:#666667;stroke-width:1.8;stroke-miterlimit:10;}
	.st16{fill:#DBDBDA;stroke:#666667;stroke-width:0.6315;stroke-miterlimit:10;}
	.st17{fill:#DBDBDA;stroke:#666667;stroke-width:0.7535;stroke-miterlimit:10;}
	.st18{fill:none;stroke:#666667;stroke-width:0.5;stroke-miterlimit:10;}
	.st19{fill:#DBDBDA;stroke:#666667;stroke-miterlimit:10;}
	.st20{fill:#666667;stroke:#666667;stroke-width:1.175;stroke-miterlimit:10;}
	.st21{fill:none;stroke:#666667;stroke-width:1.3245;stroke-miterlimit:10;}
	.st22{fill:#666667;}
	.st23{fill:none;stroke:#666667;stroke-width:1.8347;stroke-miterlimit:10;}
	.st24{fill:none;stroke:#666667;stroke-width:1.8;stroke-miterlimit:10;}
	.st25{fill:none;stroke:#666667;stroke-width:0.75;stroke-miterlimit:10;}
</style>
<polyline class="st0" points="722.4,271.4 674.7,129.1 730,199.9 "/>
<polyline class="st1" points="1096,85.9 1096.6,179 1053.3,90.3 "/>
<polyline class="st2" points="436.6,37.2 431.5,141.5 377.7,37.7 "/>
<polyline class="st2" points="525.7,220.1 491,166.9 431,142 "/>
<line class="st3" x1="627.5" y1="228.3" x2="730.5" y2="200.1"/>
<circle class="st4" cx="431" cy="141.5" r="2.8"/>
<circle class="st5" cx="2449.9" cy="173.7" r="4.3"/>
<circle class="st3" cx="893.4" cy="183.3" r="5.3"/>
<circle class="st6" cx="534" cy="131.1" r="4.9"/>
<polyline class="st2" points="310.5,234.5 431,141.5 530.3,132.4 "/>
<line class="st5" x1="2275.7" y1="108.6" x2="2446.3" y2="172.7"/>
<circle class="st7" cx="2747.7" cy="182.4" r="3.4"/>
<line class="st8" x1="2745.6" y1="180" x2="2601.9" y2="17.4"/>
<circle class="st9" cx="1097.2" cy="179.8" r="2.3"/>
<circle class="st10" cx="1022.4" cy="129.8" r="4.1"/>
<polyline class="st10" points="1260.5,237.1 1097.2,179.8 1025.3,131.5 "/>
<line class="st3" x1="624.3" y1="228.3" x2="671.3" y2="133.7"/>
<circle class="st11" cx="492.1" cy="167.8" r="3.4"/>
<circle class="st12" cx="730.7" cy="200" r="3.2"/>
<polyline class="st0" points="795.1,212.2 674.3,130.2 887.5,183.3 "/>
<circle class="st12" cx="673.7" cy="129.3" r="5.3"/>
<circle class="st10" cx="1041.9" cy="56.6" r="4.1"/>
<line class="st13" x1="2643" y1="254.5" x2="2745.8" y2="183.3"/>
<polyline class="st13" points="2801.3,103.5 2747.5,182.9 2747.7,245.2 "/>
<line class="st14" x1="2751.2" y1="182.3" x2="2819.6" y2="185"/>
<line class="st15" x1="1097.2" y1="179.8" x2="1229.5" y2="92.2"/>
<line class="st16" x1="1039.5" y1="252.2" x2="1095.2" y2="180.3"/>
<line class="st16" x1="1074.1" y1="255" x2="1096.3" y2="180.3"/>
<line class="st16" x1="1115.7" y1="250.8" x2="1097.7" y2="182.1"/>
<line class="st17" x1="489.8" y1="169.6" x2="408.6" y2="236.1"/>
<line class="st17" x1="351.8" y1="222.2" x2="488.8" y2="167.8"/>
<line class="st17" x1="456.1" y1="228.1" x2="491.4" y2="169.6"/>
<line class="st17" x1="497.3" y1="223.5" x2="492.1" y2="167.8"/>
<polyline class="st2" points="2238.8,232.9 2103,131.8 2169.4,230.6 "/>
<polyline class="st2" points="2128.4,226.4 2104.4,131.7 2097.5,232.9 "/>
<circle class="st4" cx="2103.6" cy="130.8" r="5.9"/>
<polyline class="st18" points="2302.4,27.1 2397.5,70.7 2344.7,19.5 "/>
<polyline class="st18" points="2370,16.8 2396.8,70.9 2387.9,8.9 "/>
<circle class="st4" cx="2397.3" cy="71.4" r="3.7"/>
<path class="st19" d="M431.1,330.8"/>
<circle class="st4" cx="122.4" cy="104.9" r="4.9"/>
<circle class="st4" cx="291.9" cy="124.1" r="5.5"/>
<circle class="st4" cx="84.5" cy="112" r="3.3"/>
<circle class="st4" cx="238.2" cy="165.4" r="7.7"/>
<circle class="st20" cx="2273.8" cy="108.6" r="7.5"/>
<circle class="st21" cx="65.9" cy="184.1" r="8.5"/>
<circle class="st2" cx="21.5" cy="198.2" r="4.7"/>
<circle class="st2" cx="21.5" cy="85.8" r="5.5"/>
<line class="st2" x1="73.8" y1="183.1" x2="231.2" y2="166.1"/>
<line class="st2" x1="61.2" y1="175.8" x2="24.2" y2="91"/>
<line class="st2" x1="122.2" y1="104.1" x2="232.3" y2="159.1"/>
<line class="st2" x1="241.9" y1="158" x2="288.5" y2="125.8"/>
<path class="st2" d="M124.8,104.8"/>
<line class="st2" x1="69.3" y1="176.5" x2="80.4" y2="159.5"/>
<line class="st2" x1="56.8" y1="186.9" x2="27.2" y2="195.7"/>
<line class="st2" x1="67.2" y1="176.6" x2="84.8" y2="112.9"/>
<line class="st2" x1="237.9" y1="164.9" x2="274.1" y2="208.5"/>
<line class="st2" x1="212.7" y1="212.2" x2="236.4" y2="164.2"/>
<circle class="st9" cx="1299.8" cy="158.2" r="7.3"/>
<circle class="st10" cx="1441.7" cy="157.9" r="8.1"/>
<circle class="st9" cx="1223.9" cy="133.8" r="5.2"/>
<circle class="st10" cx="1326.5" cy="115.2" r="5.2"/>
<circle class="st10" cx="1460.4" cy="109.8" r="5.2"/>
<line class="st2" x1="1433.4" y1="157.5" x2="1305.1" y2="156.8"/>
<line class="st2" x1="1227.5" y1="136" x2="1291.3" y2="157.2"/>
<line class="st2" x1="1331.5" y1="115.6" x2="1435.5" y2="152.6"/>
<line class="st2" x1="1303" y1="152.6" x2="1324.1" y2="118.4"/>
<path class="st10" d="M1324.1,110.3"/>
<line class="st2" x1="1444" y1="148.8" x2="1459.5" y2="114"/>
<line class="st2" x1="1298.7" y1="157" x2="1257.9" y2="222.6"/>
<line class="st2" x1="1446.1" y1="163.4" x2="1470.8" y2="236.1"/>
<circle class="st22" cx="1843" cy="162.5" r="6.7"/>
<circle class="st2" cx="1945.2" cy="200.7" r="7.4"/>
<circle class="st2" cx="1713.4" cy="162.3" r="7.4"/>
<circle class="st2" cx="1607.5" cy="165.7" r="7.4"/>
<circle class="st2" cx="1857.1" cy="84.8" r="4.8"/>
<circle class="st2" cx="1818.6" cy="123.2" r="4.8"/>
<circle class="st2" cx="1609.6" cy="122.2" r="4.8"/>
<line class="st23" x1="1821.7" y1="119" x2="1853.4" y2="88.2"/>
<line class="st23" x1="1814" y1="123.6" x2="1719.1" y2="157.4"/>
<line class="st2" x1="1840" y1="157.4" x2="1820.7" y2="126.2"/>
<line class="st23" x1="1706.7" y1="159.1" x2="1613.8" y2="166.4"/>
<line class="st23" x1="1600.5" y1="167.3" x2="1545.2" y2="183.6"/>
<line class="st2" x1="1607" y1="159.8" x2="1609.1" y2="127.2"/>
<line class="st2" x1="1711.4" y1="154" x2="1697.2" y2="122.2"/>
<line class="st2" x1="1842" y1="161.5" x2="1845.2" y2="229"/>
<line class="st2" x1="1897.4" y1="237.6" x2="1847.1" y2="167.2"/>
<line class="st2" x1="1710.1" y1="168.5" x2="1676.6" y2="225.8"/>
<line class="st2" x1="1844.9" y1="160.2" x2="1937.5" y2="197.8"/>
<polyline class="st2" points="2537.4,49.6 2532.7,146.6 2482.6,50.1 "/>
<polyline class="st2" points="2620.3,219.8 2588,170.3 2532.2,147.2 "/>
<circle class="st4" cx="2532.2" cy="146.6" r="2.6"/>
<polyline class="st24" points="2420,233.2 2532.2,146.6 2624.5,138.3 "/>
<circle class="st4" cx="2589" cy="171.2" r="3.1"/>
<line class="st19" x1="2586.8" y1="172.8" x2="2511.3" y2="234.7"/>
<line class="st19" x1="2458.5" y1="221.7" x2="2585.9" y2="171.2"/>
<line class="st19" x1="2555.5" y1="227.2" x2="2588.4" y2="172.8"/>
<line class="st19" x1="2593.9" y1="222.9" x2="2589" y2="171.2"/>
<circle class="st2" cx="739.5" cy="70.2" r="6.4"/>
<circle class="st2" cx="748.5" cy="110" r="4.1"/>
<circle class="st2" cx="789.3" cy="109.9" r="3.2"/>
<line class="st2" x1="747.9" y1="106.4" x2="741" y2="77.3"/>
<line class="st25" x1="788.1" y1="107.1" x2="744.6" y2="74.5"/>
<line class="st25" x1="739.3" y1="63" x2="740.4" y2="37.4"/>
<line class="st25" x1="780.4" y1="37" x2="744.7" y2="67.1"/>
</svg>
