<?xml version="1.0" encoding="utf-8"?>
<!-- Generator: Adobe Illustrator 23.0.0, SVG Export Plug-In . SVG Version: 6.00 Build 0)  -->
<svg version="1.1" id="Layer_1" xmlns="http://www.w3.org/2000/svg" xmlns:xlink="http://www.w3.org/1999/xlink" x="0px" y="0px"
	 viewBox="0 0 2855 86" style="enable-background:new 0 0 2855 86;" xml:space="preserve">
<style type="text/css">
	.st0{fill:none;stroke:#666667;stroke-width:0.9174;stroke-miterlimit:10;}
	.st1{fill:none;stroke:#666667;stroke-width:0.9756;stroke-miterlimit:10;}
	.st2{fill:none;stroke:#666667;stroke-width:1.9511;stroke-miterlimit:10;}
	.st3{fill:#666667;stroke:#666667;stroke-width:1.9511;stroke-miterlimit:10;}
	.st4{fill:none;stroke:#666667;stroke-width:1.5341;stroke-miterlimit:10;}
	.st5{fill:none;stroke:#666667;stroke-miterlimit:10;}
	.st6{fill:#666667;stroke:#666667;stroke-width:1.8347;stroke-miterlimit:10;}
	.st7{fill:none;stroke:#666667;stroke-width:1.8347;stroke-miterlimit:10;}
	.st8{fill:#666667;stroke:#666667;stroke-width:1.5918;stroke-miterlimit:10;}
	.st9{fill:#DBDBDA;stroke:#666667;stroke-width:1.5918;stroke-miterlimit:10;}
	.st10{fill:#DBDBDA;stroke:#666667;stroke-width:1.8347;stroke-miterlimit:10;}
	.st11{fill:#DBDBDA;stroke:#666667;stroke-width:0.9174;stroke-miterlimit:10;}
	.st12{fill:#DBDBDA;stroke:#666667;stroke-width:0.9756;stroke-miterlimit:10;}
	.st13{fill:#666667;stroke:#666667;stroke-width:1.5341;stroke-miterlimit:10;}
	.st14{fill:none;stroke:#666667;stroke-width:0.8522;stroke-miterlimit:10;}
	.st15{fill:none;stroke:#666667;stroke-width:0.75;stroke-miterlimit:10;}
	.st16{fill:none;stroke:#666667;stroke-width:1.7043;stroke-miterlimit:10;}
	.st17{fill:#DBDBDA;stroke:#666667;stroke-width:0.8522;stroke-miterlimit:10;}
	.st18{fill:none;stroke:#666667;stroke-width:1.7323;stroke-miterlimit:10;}
	.st19{fill:none;stroke:#666667;stroke-width:1.0722;stroke-miterlimit:10;}
	.st20{fill:none;stroke:#666667;stroke-width:1.83;stroke-miterlimit:10;}
	.st21{fill:none;stroke:#666667;stroke-width:1.1823;stroke-miterlimit:10;}
	.st22{fill:none;stroke:#666667;stroke-width:0.4575;stroke-miterlimit:10;stroke-dasharray:0.915,1.83;}
	.st23{fill:none;stroke:#666667;stroke-width:0.8661;stroke-miterlimit:10;}
	.st24{fill:none;stroke:#666667;stroke-width:0.5934;stroke-miterlimit:10;}
	.st25{fill:#DDDDDC;stroke:#666667;stroke-width:1.1868;stroke-miterlimit:10;}
	.st26{fill:none;stroke:#666667;stroke-width:1.1868;stroke-miterlimit:10;}
	.st27{fill:#DBDBDA;stroke:#666667;stroke-width:1.1868;stroke-miterlimit:10;}
	.st28{fill:#DBDBDA;stroke:#666667;stroke-width:0.5934;stroke-miterlimit:10;}
	.st29{fill:none;stroke:#666667;stroke-width:2;stroke-miterlimit:10;}
	.st30{fill:none;stroke:#666667;stroke-width:1.2921;stroke-miterlimit:10;}
</style>
<polyline class="st0" points="1770.8,71.7 1774.1,42 1785.2,58.9 "/>
<polyline class="st1" points="1353.5,64.2 1345.7,37.7 1393.9,45.7 "/>
<polyline class="st2" points="1201.6,18 1260.6,39 1344.7,36.2 "/>
<circle class="st3" cx="1345" cy="36.8" r="3.6"/>
<circle class="st4" cx="1038.5" cy="54.3" r="5.6"/>
<polyline class="st5" points="1447.6,-114.4 1345,36.8 1307,55.3 "/>
<circle class="st6" cx="1773.4" cy="40.8" r="3.4"/>
<circle class="st7" cx="1855.8" cy="60.1" r="5.9"/>
<circle class="st7" cx="1703.6" cy="52.3" r="4.1"/>
<polyline class="st7" points="1543.8,-61.8 1773.4,40.8 1850.7,58.4 "/>
<polyline class="st4" points="822,-46.8 884.8,-102 1035.2,50.2 "/>
<circle class="st3" cx="1258.8" cy="38.6" r="4.4"/>
<line class="st5" x1="817.3" y1="-41.5" x2="1032.3" y2="53.2"/>
<circle class="st8" cx="2007.8" cy="42.6" r="4"/>
<line class="st9" x1="2007.8" y1="42.6" x2="2091.7" y2="1.7"/>
<line class="st9" x1="2033.1" y1="-8" x2="2009.6" y2="39"/>
<line class="st9" x1="1963.8" y1="0" x2="2005.6" y2="40.4"/>
<line class="st10" x1="1773.4" y1="40.8" x2="1707.9" y2="51.2"/>
<line class="st11" x1="1865.5" y1="-57.1" x2="1776.2" y2="40.3"/>
<line class="st11" x1="1815.9" y1="-65.4" x2="1774.7" y2="40.1"/>
<line class="st11" x1="1755.1" y1="-64.3" x2="1772.9" y2="37.4"/>
<line class="st12" x1="1260.6" y1="35.2" x2="1320.6" y2="-86.7"/>
<line class="st12" x1="1395" y1="-100.8" x2="1262.8" y2="36.8"/>
<line class="st12" x1="1268.9" y1="-51.8" x2="1258.6" y2="36.1"/>
<line class="st12" x1="1222.8" y1="-24.2" x2="1258.8" y2="38.6"/>
<polyline class="st5" points="659.6,-84.6 722.2,63.2 646.1,-20.1 "/>
<polyline class="st5" points="592.4,-10.7 722.6,62 462.7,-9 "/>
<circle class="st13" cx="723.2" cy="62.9" r="5.6"/>
<circle class="st2" cx="1302.9" cy="57.2" r="4.3"/>
<polyline class="st14" points="2270.7,33.1 2271.5,57.1 2277.3,68.3 "/>
<polyline class="st15" points="2151.3,-12.4 2200.3,40.2 2272,56.4 "/>
<circle class="st8" cx="2272.1" cy="57" r="3.1"/>
<circle class="st16" cx="2216.3" cy="64.2" r="5.5"/>
<polyline class="st5" points="2388.4,-70 2272.1,57 2221.5,63.2 "/>
<circle class="st8" cx="2198.9" cy="39.5" r="3.8"/>
<line class="st17" x1="2201.2" y1="37" x2="2278.8" y2="-52.8"/>
<line class="st17" x1="2344.7" y1="-48.3" x2="2202.6" y2="38.8"/>
<line class="st17" x1="2227.4" y1="-34.7" x2="2199.3" y2="37.3"/>
<line class="st17" x1="2182.3" y1="-21.6" x2="2198.9" y2="39.5"/>
<circle class="st8" cx="2447.4" cy="24.2" r="4.2"/>
<line class="st18" x1="2449.7" y1="20.9" x2="2474.4" y2="-17.9"/>
<circle class="st18" cx="2409.5" cy="15.6" r="5.6"/>
<circle class="st8" cx="2473.7" cy="58.7" r="3.2"/>
<line class="st19" x1="2475.7" y1="59.4" x2="2414.6" y2="18.9"/>
<circle class="st8" cx="2662.9" cy="21" r="3.3"/>
<circle class="st20" cx="2559.8" cy="22.1" r="5.9"/>
<circle class="st15" cx="2692.2" cy="38.3" r="2.8"/>
<circle class="st21" cx="2552.9" cy="57.1" r="3.8"/>
<line class="st19" x1="2565.9" y1="22.3" x2="2658.8" y2="21.2"/>
<line class="st15" x1="2666.2" y1="21.9" x2="2690.3" y2="37"/>
<path class="st22" d="M2645.6,55.1"/>
<line class="st19" x1="2553.4" y1="24.1" x2="2476.4" y2="57.2"/>
<line class="st15" x1="2558.5" y1="28.4" x2="2553.5" y2="54"/>
<line class="st20" x1="2558.8" y1="16.9" x2="2545.3" y2="-22.2"/>
<line class="st23" x1="2473.6" y1="58" x2="2489.9" y2="72.8"/>
<line class="st23" x1="2459.6" y1="61.6" x2="2472" y2="59.2"/>
<line class="st23" x1="2563.7" y1="16.9" x2="2590.9" y2="-3"/>
<line class="st23" x1="2556.2" y1="58" x2="2563.7" y2="60.8"/>
<polyline class="st24" points="361.4,62.1 363.5,42.8 370.7,53.8 "/>
<circle class="st25" cx="363.1" cy="42.1" r="2.2"/>
<circle class="st26" cx="416.4" cy="54.6" r="3.8"/>
<circle class="st26" cx="317.9" cy="49.5" r="2.6"/>
<polyline class="st26" points="214.6,-24.3 363.1,42.1 413.1,53.5 "/>
<line class="st27" x1="363.1" y1="42.1" x2="320.7" y2="48.8"/>
<line class="st28" x1="422.7" y1="-21.3" x2="364.9" y2="41.7"/>
<line class="st28" x1="390.5" y1="-26.6" x2="363.9" y2="41.7"/>
<line class="st28" x1="351.3" y1="-25.9" x2="362.8" y2="39.9"/>
<circle class="st29" cx="140.1" cy="24.8" r="6.4"/>
<circle class="st30" cx="149.1" cy="64.6" r="4.1"/>
<line class="st5" x1="148.4" y1="61" x2="141.6" y2="31.8"/>
<line class="st5" x1="188.6" y1="61.7" x2="145.2" y2="29"/>
<line class="st29" x1="138.6" y1="16.1" x2="139.7" y2="-9.6"/>
<line class="st29" x1="181" y1="-8.4" x2="145.3" y2="21.7"/>
</svg>
