<?xml version="1.0" encoding="utf-8"?>
<!-- Generator: Adobe Illustrator 23.0.0, SVG Export Plug-In . SVG Version: 6.00 Build 0)  -->
<svg version="1.1" id="Layer_1" xmlns="http://www.w3.org/2000/svg" xmlns:xlink="http://www.w3.org/1999/xlink" x="0px" y="0px"
	 viewBox="0 0 1366 440" style="enable-background:new 0 0 1366 440;" xml:space="preserve">
<style type="text/css">
	.st0{display:none;}
	.st1{display:inline;fill:none;stroke:#A5A5A5;stroke-miterlimit:10;}
	.st2{fill:none;stroke:#999999;stroke-miterlimit:10;}
</style>
<g class="st0">
	<polygon class="st1" points="823.7,62.6 1177.9,333 940.1,193.2 	"/>
	<polyline class="st1" points="935.9,194 848,251.8 632.8,84.4 784.4,97.8 700.1,199.3 628.7,82.7 795.3,35 785.2,93.6 850.5,250.1 
		1020.5,210.8 1026.3,2.3 	"/>
	<polygon class="st1" points="1174.5,333 926.7,295.6 911.6,345.3 	"/>
	<polygon class="st1" points="1177.9,333 1150,563.5 1105.3,539.5 	"/>
	<polyline class="st1" points="1174.5,333 1036.7,542.9 1150,563.5 	"/>
	<line class="st1" x1="926.7" y1="295.6" x2="1036.7" y2="542.9"/>
	<line class="st1" x1="909.4" y1="344.7" x2="1105.3" y2="539.5"/>
	<polygon class="st1" points="1129.9,460.3 965.8,413.4 974.1,470.9 	"/>
	<polygon class="st1" points="974.1,470.9 911.1,629.4 1131,462.5 1064.6,584.2 	"/>
	<polygon class="st1" points="1035,541.2 801.1,290 668.3,411.1 	"/>
	<polyline class="st1" points="935.6,441.8 821.2,572.4 835.2,673.5 851.9,724.3 656.6,916.8 584,710.9 831.3,674.6 	"/>
	<line class="st1" x1="907.7" y1="626.6" x2="821.2" y2="570.8"/>
	<path class="st1" d="M749.2,654.5"/>
	<polyline class="st1" points="581.8,711.4 381.4,712.5 457.3,618.2 582.9,708.1 935.6,441.8 733.6,364.8 740.3,589.2 911.1,629.4 	
		"/>
	<polyline class="st1" points="959.1,666.8 850.8,722 1091.9,789 957.4,665.7 	"/>
	<polyline class="st1" points="833.5,674.6 724.7,919.1 611.9,940.3 586.2,709.2 821.2,572.4 	"/>
	<polyline class="st1" points="847.4,721.5 586.2,709.2 724.7,919.1 850.8,722 	"/>
</g>
<g id="Layer_3">
	<g>
		<g>
			<polygon class="st2" points="1178.4,332.2 823.2,60.8 938.6,193 850.4,251 			"/>
			<polyline class="st2" points="1050.8,440 910.6,345.5 928.1,294.4 1180.1,333 1164.8,439.7 			"/>
			<line class="st2" x1="1180" y1="333.1" x2="1138.2" y2="439.9"/>
			<polyline class="st2" points="1101.8,440 1179.5,333.3 910.6,345.5 			"/>
			<polygon class="st2" points="850.1,250.4 786.8,101.4 793.8,35 630.2,83.2 693.1,207 771.4,112.6 			"/>
			<line class="st2" x1="632.3" y1="82.5" x2="786.8" y2="101.2"/>
			<line class="st2" x1="771.4" y1="112.4" x2="630.2" y2="83.2"/>
			<line class="st2" x1="849.7" y1="250.9" x2="630" y2="83.1"/>
			<line class="st2" x1="938.6" y1="193" x2="1176.3" y2="331.5"/>
			<polyline class="st2" points="1057.6,439.9 966.5,413.3 970.4,440.3 			"/>
			<polyline class="st2" points="751,439.7 665.8,409.8 800.8,290.9 940.9,440.3 			"/>
			<path class="st2" d="M934.4,441.3"/>
			<line class="st2" x1="733.6" y1="364.5" x2="931.7" y2="440"/>
			<polyline class="st2" points="733.7,365 736,437.9 736.1,440.3 			"/>
			<polyline class="st2" points="521.1,439.8 509.9,412.6 587.7,440.1 			"/>
			<line class="st2" x1="461.8" y1="439.8" x2="509.9" y2="412.6"/>
		</g>
	</g>
</g>
</svg>
