<?xml version="1.0" encoding="utf-8"?>
<!-- Generator: Adobe Illustrator 22.1.0, SVG Export Plug-In . SVG Version: 6.00 Build 0)  -->
<svg version="1.1" id="Layer_1" xmlns="http://www.w3.org/2000/svg" xmlns:xlink="http://www.w3.org/1999/xlink" x="0px" y="0px"
	 viewBox="0 0 719.1 407" style="enable-background:new 0 0 719.1 407;" xml:space="preserve">
<style type="text/css">
	.st0{display:none;}
	.st1{display:inline;fill:none;stroke:#A5A5A5;stroke-miterlimit:10;}
	.st2{fill:none;stroke:#999999;stroke-miterlimit:10;}
</style>
<g class="st0">
	<polygon class="st1" points="362.1,28.3 716.3,298.7 478.5,158.9 	"/>
	<polyline class="st1" points="474.3,159.7 386.4,217.5 171.2,50.1 322.8,63.5 238.5,165 167.1,48.4 333.7,0.7 323.6,59.3 
		388.9,215.8 558.9,176.5 564.7,-32 	"/>
	<polygon class="st1" points="712.9,298.7 465.1,261.3 450,311 	"/>
	<polygon class="st1" points="716.3,298.7 688.4,529.2 643.7,505.2 	"/>
	<polyline class="st1" points="712.9,298.7 575.1,508.6 688.4,529.2 	"/>
	<line class="st1" x1="465.1" y1="261.3" x2="575.1" y2="508.6"/>
	<line class="st1" x1="447.8" y1="310.4" x2="643.7" y2="505.2"/>
	<polygon class="st1" points="668.3,426 504.2,379.1 512.5,436.6 	"/>
	<polygon class="st1" points="512.5,436.6 449.5,595.1 669.4,428.2 603,549.9 	"/>
	<polygon class="st1" points="573.4,506.9 339.5,255.7 206.7,376.8 	"/>
	<polyline class="st1" points="474,407.5 359.6,538.1 373.6,639.2 390.3,690 195,882.5 122.4,676.6 369.7,640.3 	"/>
	<line class="st1" x1="446.1" y1="592.3" x2="359.6" y2="536.5"/>
	<path class="st1" d="M287.6,620.2"/>
	<polyline class="st1" points="120.2,677.1 -80.2,678.2 -4.3,583.9 121.3,673.8 474,407.5 272,330.5 278.7,554.9 449.5,595.1 	"/>
	<polyline class="st1" points="497.5,632.5 389.2,687.7 630.3,754.7 495.8,631.4 	"/>
	<polyline class="st1" points="371.9,640.3 263.1,884.8 150.3,906 124.6,674.9 359.6,538.1 	"/>
	<polyline class="st1" points="385.8,687.2 124.6,674.9 263.1,884.8 389.2,687.7 	"/>
</g>
<g id="Layer_3">
	<g>
		<g>
			<polygon class="st2" points="716.8,297.9 361.6,26.5 477,158.7 388.8,216.7 			"/>
			<polyline class="st2" points="589.2,405.7 449,311.2 466.5,260.1 718.5,298.7 703.2,405.4 			"/>
			<line class="st2" x1="718.4" y1="298.8" x2="676.6" y2="405.6"/>
			<polyline class="st2" points="640.2,405.7 717.9,299 449,311.2 			"/>
			<polygon class="st2" points="388.5,216.1 325.2,67.1 332.2,0.7 168.6,48.9 231.5,172.7 309.8,78.3 			"/>
			<line class="st2" x1="170.7" y1="48.2" x2="325.2" y2="66.9"/>
			<line class="st2" x1="309.8" y1="78.1" x2="168.6" y2="48.9"/>
			<line class="st2" x1="388.1" y1="216.6" x2="168.4" y2="48.8"/>
			<line class="st2" x1="477" y1="158.7" x2="714.7" y2="297.2"/>
			<polyline class="st2" points="596,405.6 504.9,379 508.8,406 			"/>
			<polyline class="st2" points="289.4,405.4 204.2,375.5 339.2,256.6 479.3,406 			"/>
			<path class="st2" d="M472.8,407"/>
			<line class="st2" x1="272" y1="330.2" x2="470.1" y2="405.7"/>
			<polyline class="st2" points="272.1,330.7 274.4,403.6 274.5,406 			"/>
			<polyline class="st2" points="59.5,405.5 48.3,378.3 126.1,405.8 			"/>
			<line class="st2" x1="0.2" y1="405.5" x2="48.3" y2="378.3"/>
		</g>
	</g>
</g>
</svg>
