<?xml version="1.0" encoding="utf-8"?>
<!-- Generator: Adobe Illustrator 23.0.0, SVG Export Plug-In . SVG Version: 6.00 Build 0)  -->
<svg version="1.1" id="Layer_1" xmlns="http://www.w3.org/2000/svg" xmlns:xlink="http://www.w3.org/1999/xlink" x="0px" y="0px"
	 viewBox="0 0 726 164" style="enable-background:new 0 0 726 164;" xml:space="preserve">
<style type="text/css">
	.st0{fill:#FFFFFF;}
</style>
<g>
	<g>
		<path class="st0" d="M116.2,24.1c-32.2-31-82.9-31-115,0v115.6c32.2,31.5,82.9,31,115,0v-36.1H89.8v22.8c-14,14.1-49,13.6-62.4,0
			V37.7c14.1-14.3,48.3-14,62.4,0v22.7h26.3V24.1z"/>
		<path class="st0" d="M254.6,0.9h-96.2V163h96.2C281.8,115.4,281.8,48.4,254.6,0.9z M236.4,136.8h-51.6V27.2h51.6
			C252.8,55.9,252.8,108,236.4,136.8z"/>
		<path class="st0" d="M342.1,121.5h62.4v41.6l26.3,0v-139c-32.2-31-82.9-31-115,0v139h26.3V121.5z M342.1,37.7
			c15.2-15.2,49.4-13.1,62.4,0v57.4H342L342.1,37.7z"/>
		<path class="st0" d="M567,0.8h-94.9v162.3h26.3V116H567C597.7,84.2,597.7,32.6,567,0.8z M553.1,89.6h-54.7V27.2l54.7,0
			C568.2,42.4,566.1,76.6,553.1,89.6z"/>
	</g>
</g>
<g>
	<path class="st0" d="M614.5,74.6c2.7,0,4.7,0.8,6.2,2.3c1.4,1.5,2.2,3.4,2.2,5.7c0,2.2-0.7,4.1-2.2,5.5c-1.4,1.5-3.5,2.2-6.2,2.2
		c-2.5,0-4.6-0.7-6-2.2c-1.5-1.4-2.2-3.3-2.2-5.6c0-2.3,0.7-4.2,2.2-5.7C609.9,75.3,611.9,74.6,614.5,74.6z"/>
	<path class="st0" d="M639.2,9.7c0-2.2,0.7-4,2.1-5.4c1.4-1.4,3.4-2.2,5.9-2.2s4.6,0.7,6,2.2c1.4,1.4,2.1,3.3,2.1,5.4
		c0,2.1-0.7,3.9-2.1,5.4c-1.4,1.4-3.4,2.1-6,2.1s-4.6-0.7-5.9-2.1C639.9,13.6,639.2,11.9,639.2,9.7z M654.3,89.6H640V26.2h14.2V89.6
		z"/>
	<path class="st0" d="M667.1,57.3c0-6.2,1.2-11.8,3.7-16.8s5.9-8.8,10.4-11.5c4.5-2.7,9.6-4,15.4-4c8.6,0,15.5,2.8,20.8,8.3
		s8.2,12.8,8.6,21.9l0.1,3.3c0,6.3-1.2,11.8-3.6,16.8s-5.8,8.7-10.3,11.4c-4.5,2.7-9.6,4-15.5,4c-8.9,0-16.1-3-21.5-8.9
		c-5.4-6-8.1-13.9-8.1-23.8V57.3z M681.4,58.5c0,6.5,1.3,11.6,4,15.3s6.4,5.5,11.2,5.5s8.5-1.9,11.2-5.6c2.7-3.8,4-9.2,4-16.5
		c0-6.4-1.4-11.5-4.1-15.2s-6.5-5.6-11.2-5.6c-4.6,0-8.3,1.8-11.1,5.5C682.7,45.6,681.4,51.2,681.4,58.5z"/>
</g>
</svg>
