<?xml version="1.0" encoding="UTF-8"?>
<svg width="1355px" height="1235px" viewBox="0 0 1355 1235" version="1.1" xmlns="http://www.w3.org/2000/svg" xmlns:xlink="http://www.w3.org/1999/xlink">
    <!-- Generator: Sketch 53.2 (72643) - https://sketchapp.com -->
    <title>Shape</title>
    <desc>Created with Sketch.</desc>
    <g id="Welcome" stroke="none" stroke-width="1" fill="none" fill-rule="evenodd">
        <g id="Home---Desktop-Copy-2" transform="translate(0.000000, -508.000000)" fill="#D8D8D8" fill-rule="nonzero">
            <g id="external-link-icon" transform="translate(-85.000000, 508.000000)">
                <path d="M1131.42857,745.714286 L1131.42857,1002.85714 C1131.42857,1066.60714 1108.79464,1121.11607 1063.52679,1166.38393 C1018.25893,1211.65179 963.75,1234.28571 900,1234.28571 L231.428571,1234.28571 C167.678571,1234.28571 113.169643,1211.65179 67.9017857,1166.38393 C22.6339286,1121.11607 0,1066.60714 0,1002.85714 L0,334.285714 C0,270.535714 22.6339286,216.026786 67.9017857,170.758929 C113.169643,125.491071 167.678571,102.857143 231.428571,102.857143 L797.142857,102.857143 C804.642857,102.857143 810.803571,105.267857 815.625,110.089286 C820.446429,114.910714 822.857143,121.071429 822.857143,128.571429 L822.857143,180 C822.857143,187.5 820.446429,193.660714 815.625,198.482143 C810.803571,203.303571 804.642857,205.714286 797.142857,205.714286 L231.428571,205.714286 C196.071429,205.714286 165.803571,218.303571 140.625,243.482143 C115.446429,268.660714 102.857143,298.928571 102.857143,334.285714 L102.857143,1002.85714 C102.857143,1038.21429 115.446429,1068.48214 140.625,1093.66071 C165.803571,1118.83929 196.071429,1131.42857 231.428571,1131.42857 L900,1131.42857 C935.357143,1131.42857 965.625,1118.83929 990.803571,1093.66071 C1015.98214,1068.48214 1028.57143,1038.21429 1028.57143,1002.85714 L1028.57143,745.714286 C1028.57143,738.214286 1030.98214,732.053571 1035.80357,727.232143 C1040.625,722.410714 1046.78571,720 1054.28571,720 L1105.71429,720 C1113.21429,720 1119.375,722.410714 1124.19643,727.232143 C1129.01786,732.053571 1131.42857,738.214286 1131.42857,745.714286 Z M1440,51.4285714 L1440,462.857143 C1440,476.785714 1434.91071,488.839286 1424.73214,499.017857 C1414.55357,509.196429 1402.5,514.285714 1388.57143,514.285714 C1374.64286,514.285714 1362.58929,509.196429 1352.41071,499.017857 L1210.98214,357.589286 L687.053571,881.517857 C681.696429,886.875 675.535714,889.553571 668.571429,889.553571 C661.607143,889.553571 655.446429,886.875 650.089286,881.517857 L558.482143,789.910714 C553.125,784.553571 550.446429,778.392857 550.446429,771.428571 C550.446429,764.464286 553.125,758.303571 558.482143,752.946429 L1082.41071,229.017857 L940.982143,87.5892857 C930.803571,77.4107143 925.714286,65.3571429 925.714286,51.4285714 C925.714286,37.5 930.803571,25.4464286 940.982143,15.2678571 C951.160714,5.08928571 963.214286,0 977.142857,0 L1388.57143,0 C1402.5,0 1414.55357,5.08928571 1424.73214,15.2678571 C1434.91071,25.4464286 1440,37.5 1440,51.4285714 Z" id="Shape"></path>
            </g>
        </g>
    </g>
</svg>