<?xml version="1.0" encoding="UTF-8"?>
<svg width="63px" height="42px" viewBox="0 0 63 42" version="1.1" xmlns="http://www.w3.org/2000/svg" xmlns:xlink="http://www.w3.org/1999/xlink">
    <!-- Generator: Sketch 53.2 (72643) - https://sketchapp.com -->
    <title>icon-3</title>
    <desc>Created with Sketch.</desc>
    <g id="Welcome" stroke="none" stroke-width="1" fill="none" fill-rule="evenodd">
        <g id="Home---Large-monitor-" transform="translate(-1388.000000, -991.000000)" fill="#000000" fill-rule="nonzero">
            <g id="icon-3" transform="translate(1388.000000, 991.000000)">
                <path d="M31.0177334,0 C30.0645678,0 29.3705166,0.672275515 28.8653364,1.47664727 C28.3599657,2.28101903 27.9604124,3.33307124 27.6225303,4.60591288 C27.585861,4.74508571 27.5502393,4.88756094 27.5149986,5.03097971 C26.8620456,3.90391571 26.2064734,2.99905646 25.5148032,2.35744614 C24.8161326,1.70970278 23.9706892,1.23981758 23.0500022,1.48419563 C22.1292199,1.72857368 21.635993,2.55417518 21.3576867,3.46044976 C21.0800948,4.3671961 20.9689914,5.48671175 20.9754204,6.80106935 C20.9754204,6.94779053 20.9820876,7.09781412 20.9820876,7.24925303 C20.8636979,7.12517691 20.7460225,7.00487498 20.6289663,6.88740368 C19.6940401,5.95329454 18.818023,5.24139016 17.9741035,4.79509357 C17.1307079,4.34926875 16.1905432,4.10960843 15.3650061,4.58185249 C14.5395166,5.05362478 14.2783544,5.98018556 14.2463044,6.92703255 C14.2153498,7.87340777 14.3992205,8.98207265 14.7487701,10.2511401 C14.8747318,10.7087592 15.0235047,11.1861928 15.1927553,11.6810819 C14.9128298,11.5041673 14.6375238,11.3362164 14.3686468,11.1805315 C13.2215145,10.5176915 12.1885334,10.0529958 11.2567503,9.83833936 C10.3251577,9.62368297 9.3548956,9.63359019 8.68094106,10.301148 C8.00689129,10.9691775 7.99598572,11.9306495 8.21314461,12.8539078 C8.43011302,13.7762227 8.89862381,14.7999685 9.56800657,15.936468 C10.4142595,17.3739582 11.5898225,18.9831735 13.0220712,20.6475861 C11.7053549,20.1003302 10.4657872,19.6686586 9.34618067,19.3662526 C8.06489557,19.0199717 6.94381278,18.8378676 5.98869463,18.8690046 C5.03271927,18.9020286 4.09831694,19.158201 3.62174365,19.9757824 C3.14504178,20.7938355 3.38596433,21.725114 3.83690239,22.5610945 C4.28785474,23.3961315 5.00790792,24.2656078 5.95088231,25.191225 C6.4780641,25.7097028 7.07815604,26.2428055 7.73820478,26.7844001 C7.23435805,26.751376 6.74979845,26.7372228 6.29028833,26.7310898 C4.96171403,26.7310898 3.83409266,26.8339362 2.91873935,27.1099229 C2.00395751,27.3844944 1.16803864,27.8751376 0.921401376,28.7870734 C0.674573625,29.6985375 1.15089451,30.5373486 1.80451421,31.2289668 C2.4583244,31.9201132 3.37967815,32.5744614 4.53239661,33.2273942 C4.94418892,33.4604498 5.38669779,33.6925617 5.85487522,33.9213713 C5.43522519,34.0086492 5.03167158,34.1015883 4.64959574,34.2006605 C3.3650104,34.5356188 2.30293197,34.9314358 1.49082438,35.4315144 C0.678859656,35.9325366 0,36.6199088 0,37.5643969 C0,38.5084133 0.678859656,39.1957855 1.49082438,39.6968077 C2.30293197,40.1978298 3.3650104,40.5927033 4.64959574,40.9276616 C7.21792826,41.5966347 10.6712785,41.9948105 14.4890843,41.9948105 C18.3067948,41.9948105 21.7605736,41.5966347 24.329049,40.9276616 C25.6132391,40.5927033 26.6757937,40.1978298 27.4876632,39.6968077 C28.2997232,39.1957855 28.9783924,38.5084133 28.9783924,37.5643969 C28.9783924,37.2237773 28.8891953,36.9180689 28.7385651,36.6411385 C28.8108086,36.5109294 28.8701939,36.370813 28.9117208,36.2165435 C29.0769711,35.6065419 28.9117208,35.0305079 28.5963165,34.5087278 C28.6396531,34.4483409 28.6803703,34.3907847 28.7177541,34.3266237 C29.1945036,33.5090423 28.9533429,32.5777638 28.5025953,31.7427268 C28.3944921,31.5426954 28.2700543,31.3393615 28.1315679,31.1350841 C28.5168821,31.0596006 28.8733846,30.8930649 29.1715971,30.5972637 C29.4860489,30.285894 29.6543947,29.910835 29.724257,29.5051109 C29.7675935,29.48624 29.8108824,29.4626514 29.8535998,29.4381192 C29.9414159,29.390942 30.0217551,29.3314987 30.0970464,29.2720554 C30.245724,29.2720554 30.3966876,29.2531845 30.5500322,29.2116685 C30.9282983,29.111181 31.2337018,28.9111496 31.4826725,28.6483724 C31.492197,28.6483724 31.5021978,28.6483724 31.5117223,28.6483724 C31.7615979,28.9135084 32.0689063,29.1158987 32.4504107,29.2178015 C32.6032315,29.260261 32.7537664,29.2781884 32.9021107,29.2781884 C32.9779734,29.3385752 33.0589794,29.3951879 33.1473193,29.4456676 C33.1906558,29.4739739 33.2336114,29.4928448 33.2769955,29.5126592 C33.3467626,29.9169681 33.5151083,30.292027 33.8289887,30.602925 C34.1268678,30.8982544 34.4831798,31.0647901 34.8679225,31.1407454 C34.7295313,31.3450228 34.6049983,31.5474131 34.4969904,31.7474446 C34.0465762,32.5834251 33.8068442,33.51376 34.283546,34.3318132 C34.3211679,34.3988048 34.362409,34.4563611 34.4053646,34.5143891 C34.0864362,35.036641 33.9238528,35.6126749 34.0889602,36.2236201 C34.1303919,36.3769461 34.1898248,36.5165907 34.2623064,36.6472716 C34.1118191,36.9237301 34.0229554,37.2299104 34.0229554,37.5695864 C34.0229554,38.5140745 34.7016245,39.200975 35.5137321,39.7019972 C36.325935,40.2030193 37.3869657,40.5983645 38.67087,40.9328511 C41.2391549,41.602296 44.6946482,42 48.5122635,42 C52.3296882,42 55.7837528,41.602296 58.3520377,40.9328511 C59.635942,40.5983645 60.6988777,40.2030193 61.5108424,39.7019972 C62.3228071,39.200975 63,38.5140745 63,37.5695864 C63,36.6250983 62.3228071,35.9381978 61.5108424,35.4371757 C60.6988777,34.9366253 59.635942,34.5408083 58.3520377,34.2063217 C57.9701047,34.1067778 57.5667416,34.0147822 57.1467106,33.9275043 C57.6143642,33.698223 58.0567778,33.4665828 58.4677605,33.2335273 C59.6202266,32.5805944 60.5431519,31.9248309 61.1965335,31.2332128 C61.8499151,30.5420664 62.3266169,29.7046705 62.0799321,28.7927347 C61.8332472,27.8807989 60.9974712,27.3906275 60.0831179,27.1155842 C59.167336,26.8414845 58.0386812,26.7372228 56.7104879,26.7372228 C56.2504539,26.7372228 55.7656562,26.7560937 55.2613333,26.7905331 C55.9223345,26.2489385 56.522855,25.713477 57.050513,25.195471 C57.993916,24.2703255 58.7139692,23.4008492 59.1649549,22.5658122 C59.6159406,21.72936 59.8559583,20.799025 59.3792564,19.9814436 C58.9025546,19.1629187 57.9681998,18.9062746 57.0114625,18.8727787 C56.0561539,18.8397547 54.9365474,19.0242176 53.6555004,19.3704985 C52.5363701,19.6733763 51.297231,20.1045762 49.9804671,20.651832 C51.4115252,18.9874194 52.5863738,17.3786759 53.433103,15.9411857 C54.1022001,14.8046863 54.5708061,13.7804686 54.787965,12.8586256 C55.0051239,11.9353672 54.9941707,10.9738953 54.3198352,10.3058657 C53.6464521,9.63877968 52.6763805,9.62887246 51.7448831,9.84400063 C50.8133858,10.0581852 49.7804523,10.522881 48.6327485,11.1861928 C48.3632048,11.3423494 48.086994,11.5103004 47.806497,11.6876867 C47.9755572,11.1927976 48.1246158,10.7139487 48.2508156,10.2563296 C48.6003652,8.98726215 48.785617,7.87812549 48.7537099,6.9312785 C48.7203741,5.98395974 48.4617835,5.05928605 47.6364845,4.58704199 C46.810995,4.11479792 45.8704493,4.35398648 45.0270537,4.79981129 C44.1836581,5.24657965 43.3069267,5.95942758 42.3716195,6.89448026 C42.2554204,7.01147979 42.1377927,7.13130995 42.0196888,7.25444252 C42.024451,7.10347539 42.024451,6.95392357 42.024451,6.80720239 C42.0339755,5.4909577 41.9196814,4.37285737 41.6420418,3.46563925 C41.3644023,2.55983645 40.8691276,1.73187608 39.9485834,1.48796981 C39.0280393,1.24359176 38.1822625,1.71536405 37.4836395,2.36216386 C36.7854927,3.00990722 36.125444,3.92420192 35.4661572,5.06636264 C35.2409977,5.45699009 35.0167907,5.87639566 34.79506,6.3184463 C34.6789086,5.71504954 34.5500895,5.14231797 34.4089839,4.6106306 C34.0709113,3.33778896 33.6714532,2.28573675 33.1661778,1.48136499 C32.6609976,0.676993238 31.9685656,0.00471772291 31.0154952,0.00471772291 L31.0177334,0 Z M31.0177334,1.77197673 C31.0520217,1.77197673 31.2993257,1.85500865 31.6500658,2.41358704 C32.0009013,2.97169366 32.3720715,3.89164963 32.6814753,5.05739896 C33.0031181,6.26796666 33.2649946,7.74602925 33.4429601,9.39864759 C32.8753944,10.8677465 32.3452124,12.4840384 31.8807019,14.2017613 C31.7443109,14.7056141 31.6180159,15.2038056 31.5001976,15.6968077 C31.3822842,15.2038056 31.2561796,14.7056141 31.1201219,14.2027048 C30.4601684,11.7636421 29.6690624,9.52649788 28.8240476,7.6276144 C28.9728205,6.68218273 29.1506432,5.81648058 29.3522295,5.05739896 C29.6616809,3.89164963 30.0328512,2.97169366 30.383639,2.41358704 C30.7344268,1.85500865 30.9828737,1.77197673 31.0177334,1.77197673 Z M23.5129888,3.1957855 C23.5463245,3.19106778 23.8081058,3.1957855 24.2930464,3.65151753 C24.7772726,4.1015883 25.376174,4.89558107 25.9795042,5.94055669 C26.3104334,6.51517534 26.6445533,7.16669288 26.9751492,7.88001258 C26.698605,9.81994024 26.5451174,12.0179273 26.5451174,14.3541437 C26.5451174,14.5414373 26.5451174,14.7263721 26.5451174,14.9113068 C26.5236873,14.873565 26.5017809,14.8353515 26.4802079,14.7976097 C25.3314088,12.8270168 24.1227481,11.0423022 22.9344698,9.52461079 C22.8231759,8.52964303 22.7646954,7.61015883 22.7607903,6.79399277 C22.7541232,5.58955811 22.8738463,4.60591288 23.0660986,3.97609687 C23.2591129,3.34675263 23.4765099,3.20474917 23.5099409,3.1957855 L23.5129888,3.1957855 Z M39.4871684,3.1957855 C39.5205042,3.20522095 39.7390918,3.34816795 39.9324394,3.97704042 C40.1248345,4.60638465 40.2448434,5.59050165 40.2381762,6.79540808 C40.2286517,7.61157415 40.1753145,8.53105834 40.0638777,9.52555433 C38.8761709,11.042774 37.6675102,12.8260733 36.518854,14.7976097 C36.1345399,15.4571474 35.7723226,16.1119673 35.432107,16.7582953 C35.4687764,15.9770404 35.4888731,15.1750275 35.4888731,14.3541437 C35.4888731,12.7005819 35.4117722,11.1149552 35.2688093,9.64161032 C35.8373274,8.21497091 36.434562,6.9586413 37.021272,5.94197201 C37.6251261,4.89558107 38.2246942,4.10206007 38.7094919,3.65293285 C39.1942896,3.20191854 39.4538326,3.18918069 39.4876446,3.1957855 L39.4871684,3.1957855 Z M16.3260771,6.10190281 C16.4380377,6.09718509 16.6920089,6.12077371 17.131327,6.35665985 C17.7172274,6.66661425 18.5029997,7.27944645 19.3592534,8.13524139 C19.9490113,8.72542853 20.5754385,9.4307281 21.2183431,10.2299104 C21.4601705,12.1486083 21.8814397,14.2763013 22.4815793,16.4950464 C22.6411148,17.0852335 22.8090796,17.6626828 22.9829496,18.2273942 C22.6917853,17.9245164 22.39443,17.6211669 22.0889312,17.3192326 C20.6607781,15.9039157 19.225815,14.6414531 17.8506182,13.5676993 C17.2474784,12.1839912 16.7818726,10.8988835 16.4752786,9.78502909 C16.1552073,8.62211039 16.0128635,7.64176757 16.0346746,6.98458877 C16.0561047,6.3269382 16.2296414,6.13492688 16.2600722,6.1174713 C16.2676918,6.1174713 16.2886457,6.10331813 16.3263152,6.10331813 L16.3260771,6.10190281 Z M46.607218,6.10190281 C46.6877001,6.10190281 46.7305605,6.10662054 46.7419899,6.11605598 C46.7705634,6.13492688 46.9450049,6.32552288 46.9669112,6.98317345 C46.9907225,7.6412958 46.8458071,8.62116685 46.5257834,9.783142 C46.2190941,10.8974682 45.7533454,12.1835194 45.1499675,13.5681711 C43.7751041,14.6414531 42.3407125,15.9043875 40.912988,17.3192326 C40.6077273,17.6211669 40.3100863,17.9245164 40.0186362,18.2273942 C40.1929348,17.6617393 40.3610425,17.0838182 40.5205781,16.4931593 C41.1206224,14.2744142 41.5420821,12.147193 41.7840047,10.228495 C42.4269093,9.42931279 43.053146,8.72401321 43.6427134,8.13382607 C44.4989671,7.27897468 45.2847394,6.66519893 45.8704969,6.35524454 C46.2362382,6.1618179 46.4733986,6.10850763 46.607218,6.10143104 L46.607218,6.10190281 Z M28.4184939,11.4900142 C28.7649956,12.4925303 29.093258,13.5544897 29.3921372,14.6598522 C29.9650366,16.7781098 30.3653995,18.8114483 30.5973691,20.6211669 C30.473979,21.6354773 30.4024023,22.5884573 30.381496,23.4645384 C29.9634651,22.0270483 29.3372284,20.4050951 28.5288353,18.6831263 C28.403969,17.328668 28.3342972,15.8713634 28.3342972,14.3532002 C28.3342972,13.3690832 28.3638232,12.4113854 28.4184939,11.4900142 L28.4184939,11.4900142 Z M10.2852024,11.4900142 C10.4220696,11.4900142 10.6061309,11.508885 10.8486726,11.5636106 C11.4949584,11.7122189 12.4145977,12.1042617 13.4651039,12.7100173 C14.3578841,13.226608 15.3495288,13.8969964 16.3945583,14.6938198 C17.046035,16.1440478 17.8309501,17.6721183 18.7371599,19.2270797 C20.6455865,22.502123 22.7205493,25.2657651 24.5896397,27.1353986 C25.524804,28.0704513 26.4018688,28.7832993 27.2452644,29.2300676 C27.3707975,29.2970593 27.4989021,29.3555591 27.6281974,29.4112282 C27.4865679,29.4159459 27.2863626,29.4017927 27.0030084,29.3399906 C26.8375676,29.2975311 26.6535064,29.2484667 26.4545869,29.1786444 C26.4331568,29.1597735 26.4122029,29.1409027 26.3896774,29.1116528 C24.5032524,27.2599465 21.7120939,25.2063217 18.4058497,23.3145149 C18.1167807,23.1493946 17.8291881,22.9894638 17.5422621,22.8318918 C17.3712019,22.6672433 17.2002369,22.5007077 17.0293671,22.3318132 C14.4197458,19.746501 12.3384969,17.1258059 11.1137398,15.0448184 C10.5005993,14.0036169 10.1070464,13.0930964 9.95641621,12.4524296 C9.80569079,11.8112911 9.92260419,11.5801227 9.94308189,11.5560623 C9.95974979,11.5371914 10.0571856,11.4885988 10.285631,11.4885988 L10.2852024,11.4900142 Z M52.7144785,11.4900142 C52.9430668,11.4900142 53.0402169,11.5371914 53.0549799,11.5570058 C53.0835534,11.5853122 53.1964189,11.8145935 53.0502176,12.4543167 C52.9002065,13.0954553 52.5054155,14.0059758 51.8920368,15.0467055 C50.6676607,17.1272213 48.5856022,19.7479163 45.976219,22.3332285 C45.8047778,22.5030665 45.6333366,22.6705457 45.4614191,22.8361378 C45.1752075,22.9927662 44.8885197,23.1522252 44.6004031,23.3178173 C41.2939685,25.2077371 38.5023338,27.2637207 36.6155278,29.1158987 C36.5964787,29.1347696 36.5726675,29.1536405 36.5512373,29.1828904 C36.3531274,29.2517691 36.1688281,29.306023 36.0037207,29.3442365 C35.7184139,29.4112282 35.5173514,29.4225507 35.3755314,29.4159459 C35.5052077,29.3621639 35.6339791,29.2998899 35.7600836,29.23337 C36.6036221,28.7870734 37.481306,28.0737537 38.4156607,27.1387011 C40.2853226,25.270011 42.3597615,22.5058972 44.2689501,19.2303821 C45.1737788,17.676836 45.9585987,16.1501808 46.6095991,14.7027835 C47.6541048,13.9050165 48.6460829,13.2350999 49.5385297,12.718981 C50.5895597,12.1122818 51.508199,11.7221261 52.1549134,11.5730461 C52.3977885,11.5126592 52.582564,11.4956754 52.7187646,11.4947319 L52.7144785,11.4900142 Z M23.5991856,13.5219374 C24.0495998,14.2102532 24.4968233,14.931593 24.9341889,15.681711 C25.6230017,16.8639723 26.2390472,18.0320805 26.7742296,19.1525397 C26.9454327,20.877811 27.2076902,22.4464538 27.5436197,23.7891178 C27.1611629,23.2163862 26.73456,22.6238402 26.2680493,22.0176128 C25.5211847,20.2876238 24.8064652,18.2476805 24.2080877,16.0355402 C23.9769754,15.1816323 23.7747224,14.3404623 23.5991856,13.5219374 Z M39.4009716,13.5219374 C39.2257205,14.339047 39.0228484,15.1783299 38.7923552,16.0312942 C38.1937396,18.2434345 37.4789249,20.2857368 36.7317268,22.0176128 C35.9381444,23.0498506 35.2589038,24.0424595 34.7165304,24.9638308 C34.3559323,25.5761912 34.0559578,26.1541123 33.8200832,26.7027835 C33.8329413,26.376317 33.8768493,25.9946532 33.9528073,25.5686429 C34.11801,25.1171568 34.2704498,24.6279289 34.4112221,24.0981286 C34.5240876,23.6735336 34.6285715,23.2220475 34.7255311,22.7502752 C35.4517752,20.6754207 36.5931452,18.2099387 38.0684922,15.6784086 C38.5047149,14.9297059 38.9514146,14.2097814 39.4009716,13.5219374 L39.4009716,13.5219374 Z M33.7005506,14.3263092 C33.7005506,14.3310269 33.7005506,14.3404623 33.7005506,14.3451801 C33.7005506,17.3319704 33.4332928,20.0885359 32.9978797,22.2681239 C32.8568216,22.678094 32.7313838,23.0743828 32.619566,23.4588772 C32.5986121,22.5823243 32.5269401,21.6284007 32.4033596,20.6131467 C32.6355196,18.8029564 33.0360253,16.7696179 33.6089248,14.6508885 C33.6384508,14.5404938 33.6697864,14.4319862 33.7005506,14.3220632 L33.7005506,14.3263092 Z M19.9218188,17.6999528 C20.2212695,17.9816009 20.5209107,18.2703255 20.8203137,18.5670703 L20.8203137,18.5670703 C22.3101856,20.0432458 23.6274734,21.5307438 24.7121249,22.9234156 C25.1520146,23.9231011 25.6068577,24.8331499 26.0663678,25.6295015 C26.2851458,26.0092782 26.5039239,26.3616921 26.724464,26.6891021 C26.4474435,26.4522724 26.156803,26.1833622 25.8568285,25.8842585 C24.1452735,24.1721969 22.1282674,21.503381 20.2833217,18.3373172 C20.1592173,18.1245479 20.0379226,17.9113068 19.9185805,17.6999528 L19.9218188,17.6999528 Z M43.0798147,17.6999528 C42.9607583,17.9113068 42.8397969,18.1236043 42.715502,18.3368454 C40.8701277,21.5024375 38.8528358,24.1717251 37.1408047,25.8823714 C36.8422112,26.1810033 36.552666,26.4480264 36.2769313,26.6853279 C36.4964714,26.3583897 36.7145827,26.0078629 36.932694,25.6295015 C37.3922518,24.8331499 37.8470473,23.9231011 38.2866036,22.9234156 C39.3709693,21.5307438 40.6882095,20.042774 42.1778433,18.5665985 L42.1778433,18.5665985 C42.4783417,18.2684384 42.7793163,17.9782985 43.0798147,17.6952351 L43.0798147,17.6999528 Z M56.6890578,20.6339047 C56.782398,20.6339047 56.8700235,20.6339047 56.953363,20.6339047 C57.6172215,20.6527756 57.8124741,20.8296902 57.8300944,20.8565812 C57.8491434,20.8848876 57.8996234,21.1410599 57.5867431,21.7208681 C57.2738629,22.3002044 56.6552457,23.0791005 55.7913724,23.9273471 C54.7622488,24.9383551 53.3864329,26.0564554 51.7686944,27.1816323 C50.2395339,27.4278975 48.6094135,27.7741783 46.9264321,28.2209467 C43.2398265,29.1994024 40.0072068,30.4694134 37.7013222,31.7748074 C37.0188909,32.1611889 36.419799,32.5489857 35.9068564,32.9433873 C35.9454307,32.8386539 35.9996728,32.7169366 36.0759641,32.5749332 C36.3483652,32.0701368 36.8522119,31.4143733 37.5475014,30.6944488 C38.1637373,30.4500708 38.8185476,30.1217173 39.5166944,29.7178802 C41.6092299,28.5087278 44.0627444,26.6206951 46.5257834,24.269382 C49.3485157,22.7417833 52.0349045,21.635949 54.1260113,21.0707658 C55.1527538,20.7933637 56.039486,20.6523038 56.6890578,20.6339047 Z M6.04831808,20.6339047 C6.71160516,20.6150338 7.70272597,20.7523195 8.87586022,21.0707658 C10.9679671,21.6354773 13.6556418,22.7422551 16.4793265,24.2707973 C18.941794,26.6206951 21.3918797,28.5077842 23.4836533,29.7159931 C24.1817524,30.1198302 24.8373723,30.4486554 25.4539892,30.6930335 C26.1498025,31.4134298 26.6536969,32.0691933 26.9259551,32.5749332 C27.0021512,32.7164649 27.0563457,32.8377103 27.0949676,32.9415002 C26.5821678,32.5466268 25.9830759,32.1602453 25.3010256,31.7738638 C22.995141,30.4679981 19.762807,29.1979871 16.0752966,28.2195314 C14.3916961,27.772763 12.7606709,27.4264822 11.2313199,27.1792735 C9.61405759,26.0550401 8.23976563,24.9369398 7.21068963,23.9264035 C6.34667345,23.0791005 5.72796109,22.301148 5.41493797,21.7208681 C5.10191486,21.1401164 5.15415681,20.8858311 5.17187241,20.8565812 C5.19235011,20.8235572 5.38436429,20.6556062 6.04831808,20.6339047 L6.04831808,20.6339047 Z M6.28243061,28.4988206 C7.5041875,28.5035383 8.95381836,28.6290297 10.5458407,28.8691618 C11.5945848,29.5838968 12.7295734,30.2953295 13.9339004,30.9836452 C15.4848245,31.8705771 17.009699,32.6405095 18.4571868,33.2816481 C17.1980462,33.1839912 15.867948,33.1306809 14.48937,33.1306809 C12.5907536,33.1306809 10.7826677,33.2302249 9.12840268,33.4109137 C7.69958288,32.85092 6.44077563,32.2635635 5.42046219,31.6856424 C4.36509854,31.0879069 3.56373936,30.4939456 3.11008681,30.0136814 C2.65643427,29.5334172 2.64090931,29.2763013 2.6503862,29.2423337 C2.65705336,29.2093096 2.80263554,28.9937097 3.43811104,28.8031137 C4.07374369,28.6115741 5.06681703,28.4936311 6.28243061,28.4988206 L6.28243061,28.4988206 Z M56.7181075,28.4988206 C57.9334354,28.4988206 58.9273183,28.6106306 59.5621271,28.8021702 C60.1978883,28.9932379 60.3426609,29.2083661 60.351233,29.2418619 C60.3559952,29.274886 60.3464707,29.5329454 59.8902465,30.0132096 C59.4364035,30.4934738 58.6358682,31.0879069 57.5800759,31.6856424 C56.5604768,32.2630917 55.3022887,32.8504482 53.8745642,33.4094983 C52.2201563,33.227866 50.4114513,33.1297374 48.5122635,33.1297374 C47.1335902,33.1297374 45.8038253,33.1830476 44.5446847,33.2802327 C45.9924107,32.6390942 47.5164756,31.8691618 49.0675426,30.9817581 C50.2709648,30.2939141 51.404858,29.5834251 52.4525544,28.8691618 C54.0455292,28.6290297 55.4956363,28.5063689 56.7181075,28.4988206 L56.7181075,28.4988206 Z M15.7768937,29.9749961 C19.2727232,30.9147665 22.3343303,32.1342978 24.4132457,33.3104262 C24.5350642,33.3793049 24.6529777,33.4481837 24.7677957,33.5175342 C24.3683853,33.4462966 23.9324483,33.3491115 23.4661281,33.2226765 C21.3526864,32.651832 18.6318188,31.5275987 15.7768937,29.9749961 L15.7768937,29.9749961 Z M47.2231206,29.9749961 C44.3689575,31.5275987 41.6487566,32.649945 39.5362196,33.2212612 C39.0709472,33.3472244 38.635677,33.443466 38.2370761,33.5147036 C38.350894,33.4467684 38.4670931,33.3788331 38.5875782,33.3108979 C40.6658269,32.1338261 43.728434,30.9161818 47.2231206,29.9749961 L47.2231206,29.9749961 Z M14.48937,34.9002988 C18.1797854,34.9002988 21.523318,35.295644 23.8752536,35.9089479 C24.4472482,36.0584998 24.9593813,36.2226765 25.4008425,36.3910992 C24.8741845,36.4604498 24.2514242,36.4991351 23.5514678,36.4958327 C21.1192406,36.491115 17.7878517,36.0099072 14.2232075,35.0640038 C14.0310504,35.0102217 13.8407507,34.9611574 13.6513081,34.9083189 C13.9287572,34.9083189 14.2076349,34.9036012 14.48937,34.9036012 L14.48937,34.9002988 Z M48.5122635,34.9002988 C48.7946653,34.9002988 49.0746859,34.9002988 49.3528017,34.9050165 C49.1627877,34.9587986 48.971345,35.0102217 48.7784736,35.0611731 C45.214258,36.0075484 41.8811547,36.4863972 39.4500228,36.493002 C38.7485424,36.493002 38.1246868,36.459978 37.5979813,36.3887404 C38.0399187,36.2193741 38.5532899,36.0556691 39.1266656,35.9056455 C41.4782678,35.2923416 44.8218481,34.8969964 48.5122635,34.8969964 L48.5122635,34.9002988 Z M8.89457589,35.2225193 C10.3829239,35.7872307 12.0199495,36.3142003 13.7602209,36.7755936 C17.4478266,37.7549929 20.8879378,38.2560151 23.5437529,38.2678094 C24.8717081,38.2678094 26.0011725,38.1640195 26.9160972,37.8889763 C26.9322889,37.8889763 26.9480043,37.8748231 26.9632435,37.8748231 C26.8671888,37.9654034 26.7347029,38.0706086 26.5433078,38.1890234 C25.9794566,38.5367196 25.0507214,38.9042302 23.874825,39.2108822 C21.5228894,39.8237144 18.1793568,40.2190596 14.4889414,40.2190596 C10.798907,40.2190596 7.45637444,39.8237144 5.10434361,39.2108822 C3.92852821,38.9042302 2.99969771,38.5367196 2.43584655,38.1890234 C1.87185252,37.8413273 1.7886559,37.5950621 1.7886559,37.5606227 C1.7886559,37.5275987 1.87185252,37.2813335 2.43584655,36.9341091 C2.99969771,36.586413 3.92852821,36.2179588 5.10434361,35.9113068 C6.18028021,35.6306023 7.46537511,35.397075 8.89419491,35.2248781 L8.89457589,35.2225193 Z M54.1069623,35.2225193 C55.5356393,35.3947162 56.8209723,35.6282434 57.8962898,35.9089479 C59.0720909,36.2155999 60.0012071,36.5840541 60.5650583,36.9317503 C61.1289094,37.2794465 61.2117727,37.5252398 61.2117727,37.5587357 C61.2117727,37.5917597 61.1289094,37.8394402 60.5650583,38.1866646 C60.0012071,38.5343607 59.0720909,38.9023431 57.8962898,39.2089951 C55.5442113,39.8218273 52.202536,40.2167007 48.5122635,40.2167007 C44.8218481,40.2167007 41.4782678,39.8218273 39.1266656,39.2089951 C37.9508645,38.9023431 37.0217482,38.5343607 36.4578971,38.1866646 C36.2655019,38.067778 36.1321587,37.9625727 36.0362945,37.8715207 C36.0529624,37.8715207 36.0686779,37.8856738 36.0854886,37.8903916 C37.0007943,38.1659066 38.1304015,38.2715836 39.4585949,38.2715836 C42.1149815,38.2574304 45.5547593,37.7564082 49.2413649,36.7779525 C50.9814934,36.3160874 52.6192334,35.788646 54.1069623,35.2248781 L54.1069623,35.2225193 Z" id="Shape"></path>
            </g>
        </g>
    </g>
</svg>