<?xml version="1.0" encoding="UTF-8"?>
<svg width="55px" height="42px" viewBox="0 0 55 42" version="1.1" xmlns="http://www.w3.org/2000/svg" xmlns:xlink="http://www.w3.org/1999/xlink">
    <!-- Generator: Sketch 53.2 (72643) - https://sketchapp.com -->
    <title>icon-4</title>
    <desc>Created with Sketch.</desc>
    <g id="Welcome" stroke="none" stroke-width="1" fill="none" fill-rule="evenodd">
        <g id="Home---Large-monitor-" transform="translate(-1819.000000, -975.000000)" fill="#000000" fill-rule="nonzero">
            <g id="icon-4" transform="translate(1819.000000, 975.000000)">
                <path d="M27.2124451,17.0549133 C18.4136619,17.0549133 7.90400419,27.433526 7.47628556,27.8583815 C6.55974565,28.7687861 6.55974565,30.2861272 7.47628556,31.1965318 C7.90400419,31.6213873 18.4747646,42 27.2124451,42 C36.0112283,42 46.5208861,31.6213873 46.9486047,31.1965318 C47.8651446,30.2861272 47.8651446,28.7687861 46.9486047,27.8583815 C46.5208861,27.433526 35.9501257,17.0549133 27.2124451,17.0549133 Z M27.1513425,37.6300578 C22.6908482,37.6300578 19.0857912,34.0491329 19.0857912,29.6184971 C19.0857912,25.1878613 22.6908482,21.6676301 27.1513425,21.6676301 C31.6118367,21.6676301 35.2168937,25.2485549 35.2168937,29.6184971 C35.2168937,33.9884393 31.5507341,37.6300578 27.1513425,37.6300578 Z M18.8413805,22.699422 C17.2527114,24.5809249 16.2750688,27.0086705 16.2750688,29.6184971 C16.2750688,32.1069364 17.130506,34.4132948 18.5358672,36.234104 C14.4419889,33.8063584 10.8980346,30.5895954 9.79818669,29.5578035 C10.8980346,28.5260116 14.5641943,25.1878613 18.8413805,22.699422 Z M35.6446124,36.3554913 C37.1110762,34.5346821 38.0276162,32.1676301 38.0276162,29.6184971 C38.0276162,26.8872832 36.9888709,24.3988439 35.3390991,22.517341 C39.677388,25.0057803 43.465753,28.4653179 44.6267036,29.4971098 C43.5268557,30.5895954 39.860696,33.9277457 35.6446124,36.3554913 Z M25.8070839,11.7138728 L25.8070839,1.39595376 C25.8070839,0.606936416 26.2348025,0 27.0291371,0 C27.8234717,0 28.2511904,0.606936416 28.2511904,1.39595376 L28.2511904,11.7138728 C28.2511904,12.5028902 27.8234717,13.1098266 27.0291371,13.1098266 C26.2348025,13.1098266 25.8070839,12.5028902 25.8070839,11.7138728 Z M39.6162853,15.1734104 L46.2153728,8.61849711 C46.7652967,8.07225434 47.6818366,8.07225434 48.2317606,8.61849711 C48.7816845,9.16473988 48.7816845,10.0751445 48.2317606,10.6213873 L41.6326732,17.1763006 C41.3271599,17.4797688 41.0216466,17.6011561 40.6550306,17.6011561 C40.2884146,17.6011561 39.9217987,17.4797688 39.677388,17.1763006 C39.0663614,16.6300578 39.0663614,15.7196532 39.6162853,15.1734104 Z M54.097616,20.0289017 L48.5983765,22.2745665 C48.4150686,22.3352601 48.2317606,22.3959538 48.0484526,22.3959538 C47.4985286,22.3959538 46.9486047,22.0924855 46.7652967,21.5462428 C46.4597834,20.8179191 46.8263994,20.0289017 47.5596313,19.7254335 L53.0588708,17.4797688 C53.7921027,17.1763006 54.5864373,17.5404624 54.8919506,18.2687861 C55.1974639,18.9364162 54.830848,19.7861272 54.097616,20.0289017 Z M32.7116846,12.3815029 L36.6222549,3.03468208 C36.9277683,2.30635838 37.7221029,2.00289017 38.4553348,2.24566474 C39.1885667,2.54913295 39.49408,3.33815029 39.2496694,4.06647399 L35.3390991,13.4132948 C35.0946884,13.9595376 34.6058671,14.2630058 34.0559432,14.2630058 C33.8726352,14.2630058 33.6893272,14.2023121 33.5060192,14.1416185 C32.7116846,13.9595376 32.4061713,13.1098266 32.7116846,12.3815029 Z M6.74305363,10.5606936 C6.19312968,10.0144509 6.19312968,9.10404624 6.74305363,8.55780347 C7.29297758,8.01156069 8.2095175,8.01156069 8.75944145,8.55780347 L15.3585289,15.1127168 C15.9084528,15.6589595 15.9084528,16.5693642 15.3585289,17.1156069 C15.0530156,17.4190751 14.7475022,17.5404624 14.3808863,17.5404624 C14.0142703,17.5404624 13.6476543,17.4190751 13.4032437,17.1156069 L6.74305363,10.5606936 Z M6.92636161,22.3959538 C6.74305363,22.3959538 6.55974565,22.3352601 6.37643766,22.2745665 L0.877198157,20.0289017 C0.143966223,19.7254335 -0.161547083,18.9364162 0.0828635615,18.2080925 C0.388376867,17.4797688 1.24381412,17.1763006 1.97704606,17.4797688 L7.47628556,19.7254335 C8.2095175,20.0289017 8.5150308,20.8179191 8.27062016,21.5462428 C7.96510685,22.0924855 7.47628556,22.3959538 6.92636161,22.3959538 Z M15.7862475,4.12716763 C15.4807342,3.39884393 15.8473501,2.60982659 16.5805821,2.30635838 C17.313814,2.00289017 18.1081486,2.36705202 18.4136619,3.09537572 L22.3242322,12.4421965 C22.6297455,13.1705202 22.2631296,13.9595376 21.5298976,14.2630058 C21.3465897,14.3236994 21.1632817,14.3843931 20.9799737,14.3843931 C20.4300497,14.3843931 19.8801258,14.0809249 19.6968178,13.5346821 L15.7862475,4.12716763 Z M27.1513425,23.6705202 C23.7906961,23.6705202 21.0410763,26.4017341 21.0410763,29.7398844 C21.0410763,33.0780347 23.7906961,35.8092486 27.1513425,35.8092486 C30.5119888,35.8092486 33.2616086,33.0780347 33.2616086,29.7398844 C33.2616086,26.4017341 30.5119888,23.6705202 27.1513425,23.6705202 Z M27.1513425,33.017341 C25.3182626,33.017341 23.8517988,31.5606936 23.8517988,29.7398844 C23.8517988,27.9190751 25.3182626,26.4624277 27.1513425,26.4624277 C28.9844223,26.4624277 30.4508862,27.9190751 30.4508862,29.7398844 C30.4508862,31.5606936 28.9844223,33.017341 27.1513425,33.017341 Z" id="Shape"></path>
            </g>
        </g>
    </g>
</svg>