<?xml version="1.0" encoding="UTF-8"?>
<svg width="60px" height="38px" viewBox="0 0 60 38" version="1.1" xmlns="http://www.w3.org/2000/svg" xmlns:xlink="http://www.w3.org/1999/xlink">
    <!-- Generator: Sketch 53.2 (72643) - https://sketchapp.com -->
    <title>icon-1</title>
    <desc>Created with Sketch.</desc>
    <g id="Welcome" stroke="none" stroke-width="1" fill="none" fill-rule="evenodd">
        <g id="Home---Large-monitor-" transform="translate(-812.000000, -991.000000)" fill="#000000" fill-rule="nonzero">
            <g id="icon-1" transform="translate(812.000000, 991.000000)">
                <path d="M58.7466667,17.552069 L52.4266667,11.3410345 C51.6461042,10.5721208 50.3790701,10.5706542 49.5966667,11.3377587 C48.8142633,12.1048631 48.8127709,13.3500518 49.5933333,14.1189655 L52.5066667,16.9755172 L38.6666667,16.9755172 C37.5293522,6.9507937 28.6410972,-0.467149342 18.3909971,0.0538872573 C8.14089698,0.574923856 0.0788267732,8.85449163 7.10542736e-15,18.9410345 L7.10542736e-15,36.0344828 C7.6975463e-15,37.120008 0.8954305,38 2,38 C3.1045695,38 4,37.120008 4,36.0344828 L4,18.9410345 C3.95583507,10.936798 10.2638068,4.28405859 18.3913222,3.76314212 C26.5188375,3.24222566 33.6526097,9.03344402 34.6666667,16.9755172 L29.9,16.9755172 C29.0578194,11.4728999 23.9875788,7.57579284 18.3504553,8.09826361 C12.7133317,8.62073438 8.47386316,13.3807019 8.69333333,18.9410345 L8.69333333,23.2193103 C8.86564512,31.2630029 15.5500431,37.6953103 23.7366667,37.6953103 C31.9232902,37.6953103 38.6076882,31.2630029 38.78,23.2193103 L38.78,20.9065517 L52.5066667,20.9065517 L49.5933333,23.7696552 C49.088398,24.2670551 48.8918336,24.9914069 49.0776841,25.6698543 C49.2635346,26.3483017 49.8035649,26.8777724 50.4943508,27.0588199 C51.1851366,27.2398673 51.9217313,27.0449861 52.4266667,26.5475862 L58.7466667,20.3103448 C59.1232424,19.9415446 59.3349105,19.4405736 59.3349105,18.9181034 C59.3349105,18.3956333 59.1232424,17.8946623 58.7466667,17.5258621 L58.7466667,17.552069 Z M34.78,23.2193103 C34.6327318,29.109359 29.7318586,33.8088411 23.7366667,33.8088411 C17.7414748,33.8088411 12.8406016,29.109359 12.6933333,23.2193103 L12.6933333,18.9410345 C12.5840505,15.625884 15.0130059,12.7534602 18.3493494,12.252367 C21.6856929,11.7512737 24.8767586,13.7796132 25.78,16.9755172 L23.74,16.9755172 C21.1697116,16.9728667 18.8510104,18.4924364 17.8655343,20.8253709 C16.8800581,23.1583055 17.4219755,25.8449461 19.2384906,27.6320171 C21.0550057,29.4190882 23.7882099,29.9544826 26.1631064,28.9884472 C28.538003,28.0224118 30.0866653,25.7452848 30.0866667,23.2193103 L30.0866667,20.9065517 L34.7533333,20.9065517 L34.78,23.2193103 Z M26.1133333,20.9065517 L26.1133333,23.2193103 C26.1096539,24.4921341 25.0573918,25.5213703 23.7622348,25.5189614 C22.4670779,25.5165524 21.4187875,24.4834092 21.4200105,23.2105809 C21.4212335,21.9377526 22.4715074,20.9065569 23.7666667,20.9065517 L26.1133333,20.9065517 Z" id="Shape"></path>
            </g>
        </g>
    </g>
</svg>