<?xml version="1.0" encoding="UTF-8"?>
<svg width="51px" height="43px" viewBox="0 0 51 43" version="1.1" xmlns="http://www.w3.org/2000/svg" xmlns:xlink="http://www.w3.org/1999/xlink">
    <!-- Generator: Sketch 53.2 (72643) - https://sketchapp.com -->
    <title>icon-2</title>
    <desc>Created with Sketch.</desc>
    <g id="Welcome" stroke="none" stroke-width="1" fill="none" fill-rule="evenodd">
        <g id="Home---Large-monitor-" transform="translate(-1155.000000, -997.000000)" fill="#000000" fill-rule="nonzero">
            <g id="icon-2" transform="translate(1155.000000, 997.000000)">
                <path d="M51,28.2977127 L42.1060976,28.2977127 L49.3207317,19.227933 C50.2536585,22.0577043 50.8134146,25.1051503 51,28.2977127 Z M0,28.2977127 L0,28.2977127 C0.373170732,21.3321219 3.35853659,15.2372299 7.83658537,11.2465268 L6.59268293,9.79536209 C2.79878049,14.7293223 0.31097561,21.1870054 0,28.2977127 Z M37.0682927,17.994443 L44.5317073,9.94047857 C40.1158537,4.13581955 33.7719512,0.435349426 26.7439024,0 L26.7439024,7.90884791 C31.097561,9.79536209 34.7670732,13.423274 37.0682927,17.994443 Z M24.2560976,0 C18.1609756,0.362791189 12.6256098,3.19256246 8.39634146,7.6911732 L10.0134146,9.57768738 C12.9365854,7.61861496 16.295122,6.45768316 19.902439,6.45768316 C21.395122,6.45768316 22.8878049,6.67535787 24.2560976,7.03814906 L24.2560976,0 Z M50.8134146,10.0130368 L48.1390244,10.0130368 L26.9304878,32.9414399 C27.9256098,33.2316729 28.8585366,33.8121388 29.604878,34.6828376 C30.3512195,35.5535365 30.8487805,36.6419101 31.097561,37.8028419 L50.8134146,13.0604828 L50.8134146,10.0130368 L50.8134146,10.0130368 Z M25.6865854,35.698653 C24.8780488,35.698653 24.0695122,36.0614442 23.5097561,36.7870265 C22.3280488,38.2381913 22.3280488,40.4874967 23.5097561,41.9386614 C24.7536585,43.3898262 26.6817073,43.3172679 27.9256098,41.9386614 C29.1695122,40.4874967 29.1695122,38.2381913 27.9256098,36.7870265 C27.2414634,36.0614442 26.4329268,35.698653 25.6865854,35.698653 Z" id="Shape"></path>
            </g>
        </g>
    </g>
</svg>