<svg xmlns="http://www.w3.org/2000/svg" viewBox="0 0 32 32"><defs><style>.cls-1{fill:#1e88e5;}.cls-2{fill:#1976d2;}.cls-3{fill:#1565c0;}</style></defs><title>32px_Data_Hub Colored</title><g id="Art"><path class="cls-1" d="M6.67,10.67h6.66V4H4Q0,4,0,8V28a4.07,4.07,0,0,0,1,3l5.67-5.67Z"/><path class="cls-1" d="M28.37,0h-9.7V6.67h6.66L31.05,1A3.66,3.66,0,0,0,28.37,0Z"/><path class="cls-2" d="M32,13.33V3.63A3.66,3.66,0,0,0,31.05,1L25.33,6.67v6.66Z"/><path class="cls-2" d="M6.67,25.33,1,31a4.07,4.07,0,0,0,3,1H25.33a4.07,4.07,0,0,0,3-1l-5.66-5.66Z"/><path class="cls-3" d="M29.33,18.67H22.67v6.66L28.33,31a4.07,4.07,0,0,0,1-3Z"/></g></svg>