<svg xmlns="http://www.w3.org/2000/svg" xmlns:xlink="http://www.w3.org/1999/xlink" version="1.1" x="0px" y="0px" viewBox="0 0 64 64" style="enable-background:new 0 0 64 64;" xml:space="preserve"><g><path d="M58,17h-3V1H9v16H6c-2.757,0-5,2.243-5,5v30c0,2.757,2.243,5,5,5h13.927c-0.158,1.405-0.631,2.753-1.423,3.941L18.465,61   H15v2h34v-2h-3.465l-0.039-0.059c-0.792-1.188-1.264-2.537-1.423-3.941H58c2.757,0,5-2.243,5-5V22C63,19.243,60.757,17,58,17z    M53,3v6H11V3H53z M6,19h3v28h46V23h-2v22H11V11h42v10h2v-2h3c1.654,0,3,1.346,3,3v27H3V22C3,20.346,4.346,19,6,19z M43.221,61   H20.779c0.645-1.247,1.042-2.6,1.17-4h20.102C42.179,58.4,42.577,59.753,43.221,61z M58,55H6c-1.654,0-3-1.346-3-3v-1h58v1   C61,53.654,59.654,55,58,55z"></path><path d="M13,39h22V17H13V39z M15,19h18v18H15V19z"></path><path d="M19,33.618L30.236,28L19,22.382V33.618z M21,25.618L25.764,28L21,30.382V25.618z"></path><path d="M37,27h14V13H37V27z M39,15h10v10H39V15z"></path><path d="M37,43h14V29H37V43z M39,31h10v10H39V31z"></path><rect x="13" y="5" width="2" height="2"></rect><rect x="17" y="5" width="2" height="2"></rect><rect x="21" y="5" width="2" height="2"></rect></g></svg>