<svg xmlns="http://www.w3.org/2000/svg" xmlns:xlink="http://www.w3.org/1999/xlink" version="1.1" x="0px" y="0px" viewBox="0 0 100 100" style="enable-background:new 0 0 100 100;" xml:space="preserve"><g><g><path d="M84.9,10H15C9.5,10,5,14.5,5,20v40.6c0,5.5,4.5,10,10,10h39L73.9,90l0-19.4h10.9c5.5,0,10-4.5,10-10V20    C94.9,14.5,90.4,10,84.9,10z M91.9,60.6c0,3.9-3.1,7-7,7H73.9h-3l0,3l0,12.3L56.2,68.5l-0.9-0.9h-1.2H15c-3.9,0-7-3.1-7-7V20    c0-3.9,3.1-7,7-7h69.9c3.9,0,7,3.1,7,7V60.6z"></path></g><g><path d="M62.1,37.1h-1.5c-0.3-1-0.7-2-1.2-2.9l1-1c0.6-0.6,0.6-1.5,0-2.1l-2.7-2.7c-0.6-0.6-1.5-0.6-2.1,0l-1,1    c-0.9-0.5-1.8-0.9-2.9-1.2v-1.5c0-0.8-0.7-1.5-1.5-1.5h-3.8c-0.8,0-1.5,0.7-1.5,1.5v1.5c-1,0.3-2,0.7-2.9,1.2l-1-1    c-0.6-0.6-1.5-0.6-2.1,0l-2.7,2.7c-0.6,0.6-0.6,1.5,0,2.1l1,1c-0.5,0.9-0.9,1.8-1.2,2.9H35c-0.8,0-1.5,0.7-1.5,1.5v3.8    c0,0.8,0.7,1.5,1.5,1.5h1.5c0.3,1,0.7,2,1.2,2.9l-1,1c-0.6,0.6-0.6,1.5,0,2.1l2.7,2.7c0.6,0.6,1.5,0.6,2.1,0l1-1    c0.9,0.5,1.8,0.9,2.9,1.2V54c0,0.8,0.7,1.5,1.5,1.5h3.8c0.8,0,1.5-0.7,1.5-1.5v-1.5c1-0.3,2-0.7,2.9-1.2l1,1    c0.6,0.6,1.5,0.6,2.1,0l2.7-2.7c0.6-0.6,0.6-1.5,0-2.1l-1-1c0.5-0.9,0.9-1.8,1.2-2.9h1.5c0.8,0,1.5-0.7,1.5-1.5v-3.8    C63.6,37.8,62.9,37.1,62.1,37.1z M48.6,48.6c-4.5,0-8.2-3.7-8.2-8.2c0-4.5,3.7-8.2,8.2-8.2s8.2,3.7,8.2,8.2    C56.8,45,53.1,48.6,48.6,48.6z"></path></g><g><circle cx="48.6" cy="40.5" r="5.2"></circle></g></g></svg>