<svg xmlns="http://www.w3.org/2000/svg" xmlns:xlink="http://www.w3.org/1999/xlink" version="1.1" x="0px" y="0px" viewBox="0 0 66 66" enable-background="new 0 0 66 66" xml:space="preserve"><g><path d="M55.3,10.7c-2.2-2.8-2.2-5.4,0-8.2c0.2-0.3,0.3-0.7,0.1-1C55.3,1.2,54.9,1,54.6,1H16.1   c-3.1,0-5.6,2.5-5.6,5.6v52.7c0,3.1,2.5,5.6,5.6,5.6c11.3,0,21.3,0,38.4,0c0.5,0,1-0.4,1-1V11.3C55.5,11.1,55.5,10.9,55.3,10.7z    M16.1,2.9h36.6c-1.3,2.4-1.3,4.9,0,7.4c-5,0-26.8,0-36.7,0c-2,0-3.7-1.7-3.7-3.7S14.1,2.9,16.1,2.9z M12.4,59.4V10.9   c1,0.9,2.3,1.4,3.7,1.4h2.1v50.8h-2.1C14.1,63.1,12.4,61.4,12.4,59.4z M53.6,63.1H20.2V12.3h33.4V63.1z"></path><path d="M36.9,57.5c2.7,0,5-2.2,5-5V40.9c0-0.5-0.4-1-1-1h-3V26.1l2,0c0.3,0,0.6-0.1,0.8-0.4   c0.2-0.2,0.3-0.5,0.2-0.8l-1.4-6.4c-0.1-0.4-0.5-0.8-0.9-0.8h-3.1c-0.5,0-0.9,0.3-0.9,0.8L33,24.9c-0.1,0.3,0,0.6,0.2,0.8   c0.2,0.2,0.5,0.4,0.8,0.4l2,0v13.8h-3c-0.5,0-1,0.4-1,1v11.7C31.9,55.3,34.1,57.5,36.9,57.5z M36.1,19.7h1.6l1,4.4l-3.5,0   L36.1,19.7z M33.8,41.8c0.2,0,6.3,0,6.1,0v10.7c0,1.7-1.4,3-3,3c-1.7,0-3-1.4-3-3V41.8z"></path><path d="M36.9,52.7c0.5,0,1-0.4,1-1v-7.3c0-0.5-0.4-1-1-1s-1,0.4-1,1v7.3C35.9,52.3,36.4,52.7,36.9,52.7z"></path><path d="M18.9,7.6h27.1c0.5,0,1-0.4,1-1s-0.4-1-1-1H18.9c-0.5,0-1,0.4-1,1S18.4,7.6,18.9,7.6z"></path></g></svg>