<svg xmlns="http://www.w3.org/2000/svg" width="16" height="14" viewBox="0 0 1355 1235"><path fill="#D8D8D8" fill-rule="nonzero" d="M1046.429 745.714v257.143c0 63.75-22.634 118.26-67.902 163.527-45.268 45.268-99.777 67.902-163.527 67.902H146.429c-63.75 0-118.26-22.634-163.527-67.902C-62.366 1121.116-85 1066.607-85 1002.857V334.286c0-63.75 22.634-118.26 67.902-163.527 45.268-45.268 99.777-67.902 163.527-67.902h565.714c7.5 0 13.66 2.41 18.482 7.232 4.821 4.822 7.232 10.982 7.232 18.482V180c0 7.5-2.41 13.66-7.232 18.482-4.821 4.822-10.982 7.232-18.482 7.232H146.429c-35.358 0-65.625 12.59-90.804 37.768-25.179 25.179-37.768 55.447-37.768 90.804v668.571c0 35.357 12.59 65.625 37.768 90.804 25.179 25.178 55.446 37.768 90.804 37.768H815c35.357 0 65.625-12.59 90.804-37.768 25.178-25.179 37.767-55.447 37.767-90.804V745.714c0-7.5 2.411-13.66 7.233-18.482 4.821-4.821 10.982-7.232 18.482-7.232h51.428c7.5 0 13.661 2.41 18.482 7.232 4.822 4.822 7.233 10.982 7.233 18.482zM1355 51.43v411.428c0 13.929-5.09 25.982-15.268 36.16-10.178 10.18-22.232 15.269-36.16 15.269-13.93 0-25.983-5.09-36.161-15.268l-141.429-141.429-523.928 523.929c-5.358 5.357-11.518 8.036-18.483 8.036-6.964 0-13.125-2.679-18.482-8.036l-91.607-91.607c-5.357-5.357-8.036-11.518-8.036-18.482 0-6.965 2.679-13.125 8.036-18.483l523.929-523.928L855.982 87.589c-10.178-10.178-15.268-22.232-15.268-36.16 0-13.929 5.09-25.983 15.268-36.161C866.161 5.089 878.214 0 892.142 0h411.43c13.928 0 25.982 5.09 36.16 15.268C1349.911 25.446 1355 37.5 1355 51.428z"/></svg>
